<svg version="1.1" id="Layer_1" xmlns="http://www.w3.org/2000/svg" xmlns:xlink="http://www.w3.org/1999/xlink" x="0px" y="0px"
	 width="100%" viewBox="0 0 434 121" enable-background="new 0 0 434 121" xml:space="preserve">
<path fill="#FFFFFF" opacity="1.000000" stroke="none" 
	d="
M310.000000,122.000000 
	C208.000015,122.000000 106.500000,121.977837 5.000147,122.095512 
	C1.576149,122.099487 0.887071,121.425995 0.901290,117.999626 
	C1.058291,80.166954 1.043678,42.333233 0.915964,4.500335 
	C0.905893,1.516886 1.517996,0.916918 4.500001,0.918866 
	C146.833252,1.011840 289.166595,1.011833 431.499847,0.918899 
	C434.481445,0.916952 435.094086,1.516326 435.084076,4.500179 
	C434.956512,42.499748 434.956543,80.500031 435.084015,118.499603 
	C435.094025,121.482849 434.483612,122.093102 431.499847,122.083855 
	C391.166870,121.958931 350.833374,122.000000 310.000000,122.000000 
z"/>
<path fill="#FEFEFE" opacity="1.000000" stroke="none" 
	d="
M270.681702,75.888206 
	C271.058105,76.191887 271.026276,76.569107 271.016296,76.758133 
	C271.951996,79.782928 271.357574,82.685471 271.078705,85.948181 
	C257.501373,86.680969 244.221436,86.311623 230.946548,86.540375 
	C227.880524,86.593208 227.457626,85.236603 227.475021,82.655876 
	C227.591324,65.392242 227.438446,48.127655 227.793121,30.418839 
	C228.012482,29.974075 227.998489,29.998728 227.986145,30.005695 
	C230.883606,29.004719 233.889572,29.573952 236.845062,29.546511 
	C245.987885,29.461624 255.132950,29.446259 264.274902,29.569811 
	C266.271790,29.596800 269.131470,28.310238 270.119934,30.678383 
	C271.177948,33.213196 270.718842,36.276070 270.301941,39.048702 
	C269.988251,41.134907 267.947266,40.441402 266.586914,40.453621 
	C259.272583,40.519318 251.952530,40.640072 244.644684,40.413857 
	C241.343796,40.311672 240.322113,41.374985 240.425079,44.639400 
	C240.726974,54.209389 239.382812,52.335072 248.365265,52.499825 
	C253.184830,52.588223 258.012970,52.655445 262.826385,52.462471 
	C265.654846,52.349079 266.596283,53.301052 266.534546,56.139027 
	C266.341309,65.022736 267.121277,63.344265 259.557251,63.468403 
	C254.404968,63.552959 249.244751,63.625801 244.098618,63.429619 
	C241.201065,63.319157 240.470261,64.414291 240.419907,67.171310 
	C240.267502,75.517578 240.152222,75.498459 248.362518,75.520569 
	C255.676773,75.540276 262.991455,75.426407 270.681702,75.888206 
z"/>
<path fill="#FEFEFE" opacity="1.000000" stroke="none" 
	d="
M18.807791,52.703671 
	C19.489878,53.018547 19.915428,53.009808 20.660210,52.998878 
	C28.732765,54.209438 36.543594,53.115799 44.745182,53.780521 
	C46.219727,64.484489 46.219704,64.471344 35.787521,64.489983 
	C30.462454,64.499489 25.136808,64.401009 19.393625,64.782150 
	C18.975006,65.013947 18.996544,64.996506 19.005213,64.985695 
	C17.874189,70.687073 18.510210,76.465714 18.583981,82.198997 
	C18.629917,85.768974 17.414017,86.894928 14.043125,86.522476 
	C11.918791,86.287743 9.752034,86.556488 7.175816,86.181351 
	C5.671466,84.112045 6.021005,82.077423 6.019367,80.113976 
	C6.005687,63.714573 5.849626,47.313118 6.693896,30.448902 
	C16.083969,28.914722 25.363533,29.798807 34.624207,29.523314 
	C36.447834,29.469065 38.274456,29.515499 40.099697,29.515499 
	C49.516911,29.515503 49.516911,29.515503 49.395287,39.324406 
	C44.341568,41.274235 39.247379,40.235077 34.210278,40.449211 
	C29.445305,40.651779 24.667187,40.405575 19.470417,40.762604 
	C19.045147,40.977791 19.009216,41.000950 19.016087,40.980820 
	C17.845877,44.725014 18.723631,48.574223 18.807791,52.703671 
z"/>
<path fill="#C9C9C9" opacity="1.000000" stroke="none" 
	d="
M270.823456,75.819916 
	C262.236145,76.134033 253.411911,75.939514 244.593445,76.088043 
	C241.236343,76.144592 239.857254,75.317856 239.970428,71.688835 
	C240.301987,61.056244 238.849823,63.193104 248.668076,62.989082 
	C253.161804,62.895699 257.674744,62.738098 262.150177,63.038612 
	C266.386963,63.323093 266.087585,60.745918 266.083710,57.959755 
	C266.079803,55.169407 266.359650,52.647118 262.135254,52.857288 
	C256.321960,53.146507 250.477905,52.776054 244.657867,52.987064 
	C241.354965,53.106812 239.857040,52.315628 239.968826,48.625462 
	C240.289688,38.034435 239.146164,40.222420 248.321259,40.044289 
	C254.146774,39.931190 259.991333,39.767509 265.799103,40.107952 
	C270.214294,40.366764 270.019836,37.856510 270.086426,34.814400 
	C270.154144,31.720015 269.772949,29.898722 265.877960,29.967575 
	C253.560410,30.185312 241.236511,30.042747 228.444443,30.026106 
	C229.043915,28.453468 230.680893,29.006376 232.098312,29.001184 
	C243.597214,28.959087 255.098740,29.108734 266.593994,28.899429 
	C270.187378,28.834002 271.151306,30.062536 271.038239,33.484138 
	C270.744171,42.385021 271.785034,40.845081 263.601624,40.954845 
	C257.269867,41.039776 250.929245,41.161747 244.605759,40.920864 
	C240.139282,40.750710 240.863190,43.696770 240.998383,46.242657 
	C241.130585,48.732487 239.572235,52.280689 244.555161,52.118221 
	C250.548248,51.922810 256.561279,52.268627 262.548889,52.002251 
	C266.100189,51.844269 267.455933,53.055897 266.966370,56.529007 
	C266.828156,57.509548 266.830933,58.541119 266.963531,59.523033 
	C267.424591,62.938164 266.184235,64.262535 262.577454,64.098343 
	C256.590424,63.825802 250.575485,64.198746 244.584290,63.976654 
	C239.594299,63.791687 241.142075,67.309143 240.991882,69.806168 
	C240.835175,72.411194 240.271774,75.081718 244.673630,75.073898 
	C253.308823,75.058556 261.966797,74.381516 270.823456,75.819916 
z"/>
<path fill="#F3F3F3" opacity="1.000000" stroke="none" 
	d="
M92.115593,9.440763 
	C94.927216,8.041773 94.038406,10.612961 94.171722,11.430996 
	C94.761505,15.050132 96.074257,17.943441 99.705101,19.471800 
	C100.911057,19.979431 101.581543,21.188940 102.043999,22.533283 
	C103.891289,27.903320 105.845497,33.237011 107.805138,38.567619 
	C108.217941,39.690536 108.820053,40.655781 107.192726,41.383831 
	C105.525658,42.129650 104.536781,41.436363 104.157349,39.977901 
	C103.322906,36.770428 100.856033,34.407406 99.990814,31.132351 
	C99.433853,29.024137 98.481277,26.402330 95.521729,25.882309 
	C93.962456,25.608330 93.249474,24.181377 93.222511,22.956879 
	C93.125130,18.534985 90.746521,14.323658 92.115593,9.440763 
z"/>
<path fill="#C9C9C9" opacity="1.000000" stroke="none" 
	d="
M419.295776,30.091742 
	C416.125793,30.776613 417.091797,33.015232 417.073090,34.634304 
	C416.976715,42.961617 417.067657,51.290997 416.993286,59.618763 
	C416.979462,61.170135 417.621277,62.900612 415.994415,64.707054 
	C415.994415,55.209442 415.921692,46.145386 416.040588,37.083843 
	C416.074432,34.506859 414.693207,30.878546 416.974945,29.571753 
	C419.903442,27.894575 423.799713,28.961073 427.271820,29.106352 
	C429.150116,29.184940 428.962463,30.857574 428.963593,32.155437 
	C428.978485,49.312023 428.931946,66.468811 429.014191,83.625015 
	C429.026917,86.277748 428.018860,87.198051 425.484467,87.038139 
	C423.356049,86.903831 421.212402,87.010536 418.752747,87.010536 
	C419.178528,86.441582 419.306274,86.104126 419.456757,86.093666 
	C428.012726,85.498970 428.012604,85.501648 428.011810,76.650452 
	C428.010681,63.824635 428.073212,50.998394 427.988068,38.173138 
	C427.925934,28.807100 429.376923,30.174706 419.295776,30.091742 
z"/>
<path fill="#FEFEFE" opacity="1.000000" stroke="none" 
	d="
M342.595093,101.739563 
	C345.480927,105.832466 342.763367,110.591125 344.995667,114.795464 
	C345.588531,115.912018 343.315643,115.283478 342.165802,114.721451 
	C339.973694,113.649963 339.975708,109.564407 336.167175,110.821503 
	C335.028961,112.028130 336.072693,114.630219 333.792419,114.244270 
	C331.766479,113.901375 332.589996,111.863846 332.552124,110.538086 
	C332.467896,107.591637 332.444550,104.638603 332.861755,101.319153 
	C333.552582,100.962524 333.959991,100.976273 334.673126,100.991455 
	C336.196777,102.128220 335.285858,103.486870 335.471191,104.355644 
	C336.342529,100.802292 339.596802,101.841187 342.595093,101.739563 
z"/>
<path fill="#F3F3F3" opacity="1.000000" stroke="none" 
	d="
M351.601715,29.864113 
	C352.355835,30.575161 352.915833,31.145300 352.913330,31.712973 
	C352.834839,49.605946 353.446503,67.503151 352.341064,85.692841 
	C351.750763,86.087914 351.447906,86.181870 350.815918,85.931732 
	C350.356659,85.283646 350.142029,84.983482 350.123413,84.670456 
	C349.063721,66.858047 349.093689,49.042824 350.230408,30.798264 
	C350.677094,30.154274 350.911224,29.938164 351.601715,29.864113 
z"/>
<path fill="#C9C9C9" opacity="1.000000" stroke="none" 
	d="
M227.691589,30.249302 
	C228.009567,47.086529 228.111618,64.200150 227.921631,81.310524 
	C227.880005,85.057594 228.988678,86.140625 232.707306,86.069359 
	C245.163132,85.830681 257.625549,85.936333 270.552032,85.853439 
	C271.146545,85.999603 271.274475,86.202469 271.199280,86.702263 
	C257.716248,87.002953 244.436356,87.013550 231.156464,87.003044 
	C229.202499,87.001495 226.973694,87.400215 227.011810,84.253990 
	C227.228729,66.344894 226.539276,48.429741 227.691589,30.249302 
z"/>
<path fill="#F3F3F3" opacity="1.000000" stroke="none" 
	d="
M6.803426,29.892368 
	C7.035161,48.428127 7.027423,66.666031 7.030807,85.361053 
	C6.873591,86.023354 6.705251,86.228539 6.206669,86.211403 
	C4.498329,84.609360 5.031875,82.852455 5.025774,81.249130 
	C4.983382,70.108025 4.817293,58.962265 5.081421,47.827263 
	C5.214452,42.219002 6.361929,36.641537 5.969885,30.527754 
	C6.163619,29.909801 6.363785,29.752155 6.803426,29.892368 
z"/>
<path fill="#F3F3F3" opacity="1.000000" stroke="none" 
	d="
M251.274872,104.550827 
	C252.497192,99.977455 256.154358,101.417496 257.302551,102.818016 
	C259.294373,105.247650 260.335327,108.643097 261.131042,111.796043 
	C261.595093,113.634857 259.344177,113.178230 258.723602,112.676918 
	C255.123718,109.768867 252.159180,110.881012 249.296341,114.418213 
	C247.681213,110.361580 250.837112,107.921303 251.274872,104.550827 
z"/>
<path fill="#C9C9C9" opacity="1.000000" stroke="none" 
	d="
M351.784363,29.680676 
	C351.874451,30.027699 351.690857,30.049217 351.233185,30.113026 
	C350.034271,30.939308 348.931580,31.406744 347.754944,31.373459 
	C342.120941,31.214077 341.509705,32.113918 341.522308,38.847733 
	C341.545959,51.493687 341.547546,64.139763 341.522125,76.785713 
	C341.507080,84.269974 342.072418,84.728203 348.376465,84.719093 
	C349.038422,84.718140 349.661743,85.036636 350.609131,85.616394 
	C351.147278,85.900536 351.327942,85.923119 351.781128,85.969833 
	C348.509766,88.145561 344.646942,86.642029 340.941864,86.910721 
	C339.092743,87.044815 339.024017,85.459557 339.023834,84.079742 
	C339.021362,66.640190 339.039398,49.200603 339.000519,31.761139 
	C338.995514,29.519432 340.121094,28.881767 342.100250,28.975269 
	C345.236053,29.123417 348.373779,29.230635 351.784363,29.680676 
z"/>
<path fill="#FEFEFE" opacity="1.000000" stroke="none" 
	d="
M237.735901,107.798782 
	C240.253983,110.182495 239.684204,111.957153 237.107239,113.769989 
	C234.578186,115.041862 232.069870,113.513901 229.665390,114.425072 
	C229.237610,114.587181 228.507401,114.520012 228.292755,114.120728 
	C226.631638,111.030441 227.844376,107.683815 227.548370,104.462059 
	C227.410156,102.957756 227.433670,101.278717 230.191986,101.914482 
	C232.132141,103.136185 232.378357,105.454491 234.663681,106.339714 
	C235.293152,108.085213 236.344193,107.919281 237.735901,107.798782 
z"/>
<path fill="#F3F3F3" opacity="1.000000" stroke="none" 
	d="
M358.602478,101.001190 
	C356.724243,105.486305 356.855774,105.738556 361.789185,106.625618 
	C364.303375,107.077682 366.266602,110.192604 366.240875,111.015991 
	C366.160706,113.582954 362.779816,113.833466 360.965424,115.371452 
	C359.537201,116.582092 358.137390,115.922813 358.007080,113.374252 
	C359.677155,112.950623 361.981567,113.001549 362.154755,111.230904 
	C362.406494,108.657608 359.739502,109.365883 358.147949,108.812134 
	C356.633942,108.285370 354.208740,108.270241 354.742767,105.552757 
	C355.143585,103.512970 354.416077,100.509262 358.602478,101.001190 
z"/>
<path fill="#F3F3F3" opacity="1.000000" stroke="none" 
	d="
M426.589783,101.740440 
	C429.106689,104.299904 429.222412,106.583878 426.261780,108.864700 
	C424.926086,109.743469 423.728790,109.543930 422.620148,109.454025 
	C420.310577,109.266754 419.229004,110.138763 419.446838,112.519363 
	C419.528442,113.411346 419.111145,114.150307 418.192993,114.347610 
	C417.753693,114.442009 417.258759,114.240318 416.914612,113.803810 
	C415.749725,112.326302 416.725464,103.308922 418.624084,101.731606 
	C421.104065,102.297592 420.748779,105.396759 423.053528,105.693024 
	C423.978027,104.609749 422.716736,103.862282 422.766357,102.596390 
	C423.779236,101.083420 425.075775,101.633232 426.589783,101.740440 
z"/>
<path fill="#F3F3F3" opacity="1.000000" stroke="none" 
	d="
M403.962372,109.326447 
	C404.012787,108.553719 404.010956,108.113457 404.007599,107.343010 
	C404.659821,106.334114 405.325409,105.676643 406.684235,105.847931 
	C409.285187,108.909309 408.610199,112.181412 405.280457,114.334686 
	C401.773438,116.602623 397.947906,115.874550 396.055603,112.503433 
	C395.582916,111.661301 395.388977,110.662682 395.033447,109.369156 
	C395.513519,108.059082 396.158325,107.332535 397.690491,107.779083 
	C398.174896,108.554413 398.349792,109.110359 398.773193,109.831161 
	C400.755371,111.395271 402.508392,113.074120 403.962372,109.326447 
z"/>
<path fill="#C9C9C9" opacity="1.000000" stroke="none" 
	d="
M7.504963,30.132404 
	C6.864282,30.159340 6.685663,30.128456 6.235249,30.082508 
	C7.154286,28.335238 8.967753,29.014336 10.519593,29.006556 
	C21.931387,28.949341 33.346973,29.132868 44.753849,28.888956 
	C48.769642,28.803089 50.658054,29.824120 50.051056,34.081272 
	C49.750652,36.188148 49.767769,38.340302 49.316978,40.737946 
	C48.824036,40.852608 48.655334,40.701302 48.644989,40.249207 
	C49.354095,30.045774 49.354095,30.044117 39.680752,30.049967 
	C29.109510,30.056360 18.538267,30.066231 7.504963,30.132404 
z"/>
<path fill="#F3F3F3" opacity="1.000000" stroke="none" 
	d="
M147.990128,34.621689 
	C148.031860,33.558315 148.073410,32.913708 148.114960,32.269104 
	C148.292587,32.271111 148.470230,32.273121 148.647858,32.275127 
	C148.647858,49.445004 148.647858,66.614876 148.647858,83.784752 
	C148.428558,83.788704 148.209244,83.792656 147.989944,83.796616 
	C147.989944,67.544563 147.989944,51.292511 147.990128,34.621689 
z"/>
<path fill="#C9C9C9" opacity="1.000000" stroke="none" 
	d="
M389.935486,83.658234 
	C389.958893,72.646385 389.958893,62.097790 389.958893,51.549194 
	C390.311432,51.551342 390.663940,51.553493 391.016479,51.555641 
	C391.016479,62.445274 390.992523,73.334999 391.036255,84.224457 
	C391.045227,86.462547 389.894897,87.059296 387.920624,87.019547 
	C384.963287,86.959999 382.003876,87.004066 379.021912,85.981262 
	C381.335388,85.981262 383.652191,86.056740 385.961121,85.954491 
	C387.477539,85.887337 389.478058,86.615837 389.935486,83.658234 
z"/>
<path fill="#C9C9C9" opacity="1.000000" stroke="none" 
	d="
M164.263550,75.002029 
	C167.695892,75.031326 170.670685,75.031326 174.030334,75.031326 
	C173.556778,75.556885 173.426086,75.837128 173.278839,75.846107 
	C160.952225,76.598076 160.952133,76.596550 160.952164,64.367249 
	C160.952164,56.913715 160.952164,49.460178 160.952164,42.006645 
	C161.311417,42.003914 161.670670,42.001186 162.029922,41.998455 
	C162.029922,51.308571 161.963547,60.619583 162.089127,69.928001 
	C162.112625,71.669319 160.921951,74.098473 164.263550,75.002029 
z"/>
<path fill="#C9C9C9" opacity="1.000000" stroke="none" 
	d="
M313.258057,111.677681 
	C313.580902,115.184044 316.126831,113.771957 317.824615,113.930527 
	C319.683807,114.104156 321.594849,113.721893 323.499481,114.119095 
	C319.852875,115.036140 315.031067,116.560143 312.792175,113.971916 
	C310.483917,111.303535 310.805267,105.654472 312.511444,102.604584 
	C314.662354,98.759689 319.577423,101.974266 323.239136,101.290154 
	C320.433380,103.229897 320.433380,103.229897 315.420380,102.100868 
	C313.171326,104.942535 314.557800,108.348450 313.258057,111.677681 
z"/>
<path fill="#C9C9C9" opacity="1.000000" stroke="none" 
	d="
M426.653809,101.608185 
	C425.750763,102.071068 424.575836,102.234947 423.153320,102.658150 
	C422.275146,103.588791 421.510193,103.701340 420.325256,103.217018 
	C418.862793,102.559563 417.251068,101.307396 417.078857,103.613182 
	C416.834442,106.886063 416.563873,110.246758 417.893494,113.833611 
	C418.347076,108.780502 421.582001,108.671844 425.522583,109.006271 
	C423.626251,110.543556 419.074829,109.376556 419.466736,114.320625 
	C419.477722,114.459457 418.343933,114.848343 417.746490,114.842842 
	C416.511475,114.831467 416.087616,113.932617 416.079926,112.841835 
	C416.057831,109.708084 416.095154,106.573853 416.064606,103.440247 
	C416.044434,101.371201 417.339111,101.004410 418.998718,101.057487 
	C421.459930,101.136200 423.920837,101.224792 426.653809,101.608185 
z"/>
<path fill="#FEFEFE" opacity="1.000000" stroke="none" 
	d="
M276.292664,108.915329 
	C275.990326,109.000511 275.496979,109.000290 275.250305,109.000259 
	C273.398926,108.857307 271.719818,109.381432 269.930908,108.152191 
	C269.601349,107.516487 269.536560,107.192566 269.530334,106.866516 
	C269.427734,101.513359 269.428986,101.513336 275.134247,102.047821 
	C277.434906,102.312515 278.642731,103.333488 279.073486,105.586533 
	C278.999908,106.002495 279.000000,106.000000 279.001221,105.999512 
	C278.032288,106.800156 277.766876,108.200562 276.292664,108.915329 
z"/>
<path fill="#C9C9C9" opacity="1.000000" stroke="none" 
	d="
M299.775330,113.718353 
	C297.491425,116.014801 294.619598,114.646530 291.935425,114.879501 
	C290.480835,115.005753 290.006134,113.913857 290.007782,112.597603 
	C290.009033,111.610664 289.986969,110.623741 289.982239,109.636772 
	C289.937531,100.356285 289.937958,100.356285 299.743896,101.683403 
	C299.423798,102.847961 298.501892,103.159546 297.277893,103.639946 
	C296.264771,103.941933 295.570709,104.021362 294.537994,104.105423 
	C290.685059,105.392616 292.476166,108.288147 292.464050,110.440437 
	C292.451721,112.630684 294.563812,112.005508 295.950684,112.164536 
	C296.782623,112.259933 297.585938,112.447945 298.687378,112.877190 
	C299.194000,113.159500 299.383636,113.295853 299.775330,113.718353 
z"/>
<path fill="#C9C9C9" opacity="1.000000" stroke="none" 
	d="
M231.288147,103.205093 
	C229.855042,102.568016 228.490356,101.319901 228.050919,103.698196 
	C227.991608,104.019249 227.992767,104.356339 228.003769,104.684746 
	C228.097046,107.471138 227.222443,111.005798 228.604462,112.808929 
	C229.730179,114.277641 233.559875,113.673851 236.576736,114.027031 
	C234.444031,115.952415 231.585037,114.657616 228.892136,114.888710 
	C227.751602,114.986588 227.119415,114.160126 227.069672,113.014885 
	C227.019760,111.865799 227.016678,110.714279 227.011429,109.563744 
	C226.968887,100.234749 226.970200,100.234741 236.861115,101.732895 
	C236.474915,102.915947 235.502426,103.229507 234.176910,103.669640 
	C233.032608,103.885918 232.283890,103.819496 231.288147,103.205093 
z"/>
<path fill="#C9C9C9" opacity="1.000000" stroke="none" 
	d="
M19.445606,65.017586 
	C22.121367,62.877895 25.641741,64.333878 28.975588,64.017555 
	C31.259974,63.800804 33.581528,63.975464 35.886467,63.975716 
	C45.108025,63.976723 45.108025,63.976807 44.972305,54.475338 
	C44.785686,53.831722 44.634758,53.643902 44.782425,53.252449 
	C46.856728,56.329262 45.811508,59.847733 45.817528,63.247654 
	C45.821411,65.442329 43.762135,64.989990 42.365047,64.998108 
	C34.882305,65.041557 27.399191,65.020187 19.445606,65.017586 
z"/>
<path fill="#C9C9C9" opacity="1.000000" stroke="none" 
	d="
M383.385071,107.170761 
	C382.864563,107.159744 382.683594,107.144882 382.230408,107.138695 
	C379.876404,108.100716 377.867462,108.631004 375.723602,105.295158 
	C376.628693,107.109955 375.063263,108.692703 377.658691,108.950272 
	C377.981598,110.169884 378.013794,111.326027 377.996063,112.481400 
	C377.977295,113.705383 377.791809,114.820251 376.180084,114.866631 
	C374.339050,114.919609 374.022064,113.740967 374.022980,112.275383 
	C374.024719,109.467857 374.011444,106.660286 374.025909,103.852837 
	C374.033020,102.473915 374.122955,101.155441 376.038452,101.132805 
	C377.597961,101.114380 377.982849,102.037552 378.017670,103.348297 
	C378.123871,107.344299 381.221191,105.544891 383.592468,105.991943 
	C384.204315,106.455284 384.091034,106.843544 383.385071,107.170761 
z"/>
<path fill="#C9C9C9" opacity="1.000000" stroke="none" 
	d="
M6.165222,86.307785 
	C6.071167,85.965019 6.265908,85.940941 6.751289,85.867523 
	C18.009228,86.412453 17.980213,86.412346 18.019672,75.824356 
	C18.032484,72.386536 18.240671,68.949440 18.686687,65.243454 
	C19.007370,70.931190 18.842913,76.893196 19.057159,82.841545 
	C19.174358,86.095375 18.100178,87.381706 14.830896,87.045296 
	C12.053644,86.759514 9.247422,86.755287 6.165222,86.307785 
z"/>
<path fill="#FEFEFE" opacity="1.000000" stroke="none" 
	d="
M378.315735,109.007339 
	C376.001282,109.915634 377.965393,112.606628 375.555908,113.729500 
	C374.660126,109.848122 374.756348,106.209656 375.897308,102.354782 
	C376.966034,104.857826 377.302826,107.989052 381.544708,107.100174 
	C381.284363,108.522430 380.142853,109.065208 378.315735,109.007339 
z"/>
<path fill="#C9C9C9" opacity="1.000000" stroke="none" 
	d="
M276.217529,102.758682 
	C272.988617,102.988998 268.681976,101.154343 270.073364,107.560501 
	C270.598755,108.687141 270.764496,109.461861 270.302185,110.668228 
	C270.094391,111.025589 270.072510,111.510185 270.076813,111.752686 
	C270.223053,112.169411 270.365021,112.343620 270.754822,112.746315 
	C272.345520,114.580109 270.780487,115.507248 270.079041,114.640625 
	C267.733093,111.742180 269.350372,108.046387 269.027985,104.696068 
	C268.912048,103.490967 268.518494,101.834747 270.199982,101.298515 
	C271.267090,100.958191 272.492279,101.029289 273.643280,101.056389 
	C275.285553,101.095078 276.924805,101.262527 278.826904,101.706451 
	C278.380219,102.873604 277.459076,102.760223 276.217529,102.758682 
z"/>
<path fill="#F3F3F3" opacity="1.000000" stroke="none" 
	d="
M48.353477,39.962776 
	C48.837543,40.123863 48.871746,40.299297 48.949341,40.739323 
	C39.319576,41.004059 29.646420,41.004200 19.509205,40.991066 
	C21.367752,39.066402 24.104164,40.093956 26.633648,40.039131 
	C33.720757,39.885502 40.813248,39.980324 48.353477,39.962776 
z"/>
<path fill="#F3F3F3" opacity="1.000000" stroke="none" 
	d="
M300.342438,113.961876 
	C299.808380,113.989990 299.639374,113.975464 299.218842,113.922592 
	C297.390411,111.972588 297.351227,109.598488 297.015045,106.930420 
	C297.104828,106.288986 297.172852,106.037399 297.442078,105.450089 
	C298.675171,104.313049 299.593475,104.797836 300.758820,105.662590 
	C300.946625,108.613228 305.908295,111.461426 300.342438,113.961876 
z"/>
<path fill="#C9C9C9" opacity="1.000000" stroke="none" 
	d="
M160.040558,28.976072 
	C165.978912,28.975760 171.425095,28.975760 176.871292,28.975760 
	C176.869461,29.232914 176.867630,29.490068 176.865799,29.747223 
	C167.889252,29.747223 158.912720,29.747223 149.936172,29.747223 
	C149.930191,29.490276 149.924194,29.233332 149.918198,28.976385 
	C153.128265,28.976385 156.338333,28.976385 160.040558,28.976072 
z"/>
<path fill="#C9C9C9" opacity="1.000000" stroke="none" 
	d="
M300.218323,30.268482 
	C303.848846,27.844646 308.009796,29.321848 312.025452,29.107431 
	C313.788025,29.013319 313.922943,30.626616 313.927124,32.005219 
	C313.938019,35.620731 313.930786,39.236298 313.057648,42.848629 
	C313.057648,40.422955 312.840698,37.973385 313.104614,35.576775 
	C313.593140,31.140615 311.735535,29.486382 307.424225,30.009504 
	C305.626770,30.227602 303.785980,30.088924 301.514099,30.175240 
	C300.858704,30.329588 300.654083,30.421167 300.218323,30.268482 
z"/>
<path fill="#C9C9C9" opacity="1.000000" stroke="none" 
	d="
M155.242035,85.984177 
	C162.135941,85.984375 168.563644,85.984375 174.991364,85.984375 
	C174.989349,86.223907 174.987335,86.463440 174.985321,86.702972 
	C166.633728,86.702972 158.282150,86.702972 149.930573,86.702972 
	C149.928619,86.463303 149.926666,86.223640 149.924713,85.983971 
	C151.541763,85.983971 153.158798,85.983971 155.242035,85.984177 
z"/>
<path fill="#F3F3F3" opacity="1.000000" stroke="none" 
	d="
M44.604935,53.028522 
	C45.081024,53.048817 45.006016,53.533501 44.971313,53.776524 
	C37.150608,53.735031 29.344940,54.532452 21.275124,53.295761 
	C28.695910,53.000534 36.412380,53.004383 44.604935,53.028522 
z"/>
<path fill="#C9C9C9" opacity="1.000000" stroke="none" 
	d="
M332.786926,101.194351 
	C333.110596,104.569992 333.052582,108.191254 333.060516,111.812363 
	C333.062164,112.558762 333.022980,113.743294 334.196808,113.421730 
	C334.744324,113.271729 335.031128,112.170036 335.703735,111.295731 
	C335.662140,112.532463 336.641357,114.775810 334.021515,114.850098 
	C331.347443,114.925934 331.988556,112.711555 332.033112,111.237404 
	C332.131805,107.971832 331.477814,104.669365 332.786926,101.194351 
z"/>
<path fill="#F3F3F3" opacity="1.000000" stroke="none" 
	d="
M233.816544,103.193138 
	C234.526917,102.002769 235.462952,101.980972 236.774078,102.039047 
	C238.663620,103.569458 237.744888,105.490547 238.001495,107.616531 
	C237.061279,107.590042 235.775085,109.409836 235.018005,107.283218 
	C234.070648,106.035454 233.679245,104.889320 233.816544,103.193138 
z"/>
<path fill="#FEFEFE" opacity="1.000000" stroke="none" 
	d="
M403.675385,109.140915 
	C405.490051,110.906906 404.313965,112.986900 403.036987,113.541496 
	C401.061676,114.399361 400.160339,112.075951 399.070526,110.340576 
	C400.496307,109.982353 402.003326,110.165779 403.675385,109.140915 
z"/>
<path fill="#F3F3F3" opacity="1.000000" stroke="none" 
	d="
M313.321289,111.967216 
	C313.524689,108.732498 311.579132,105.163734 314.618286,102.108856 
	C315.024628,102.074226 315.011688,102.549812 315.000885,102.787445 
	C314.192352,104.362091 314.114471,105.585823 315.784607,106.820747 
	C314.942841,108.551811 315.284088,110.737846 313.321289,111.967216 
z"/>
<path fill="#FEFEFE" opacity="1.000000" stroke="none" 
	d="
M383.171844,107.437561 
	C383.315125,106.948074 383.584717,106.721558 383.940063,106.243622 
	C384.420471,105.994095 384.815186,105.995972 385.506104,105.997650 
	C386.976532,108.643524 386.769348,111.310600 385.459473,113.988861 
	C382.205170,112.493858 385.551361,109.341835 383.171844,107.437561 
z"/>
<path fill="#F3F3F3" opacity="1.000000" stroke="none" 
	d="
M404.339691,105.253471 
	C403.177551,103.810890 402.358734,102.593842 401.257751,101.180038 
	C404.327545,100.075356 405.876343,102.333710 407.199371,104.833481 
	C406.297272,105.529602 405.532104,105.719208 404.339691,105.253471 
z"/>
<path fill="#C9C9C9" opacity="1.000000" stroke="none" 
	d="
M385.217102,114.281143 
	C386.902039,111.816360 385.581451,109.227692 385.857361,106.424339 
	C385.802307,104.460129 385.802307,102.922806 385.802307,101.385475 
	C386.273193,105.824501 388.835693,110.356674 385.217102,114.281143 
z"/>
<path fill="#C9C9C9" opacity="1.000000" stroke="none" 
	d="
M342.655487,101.623726 
	C339.965576,102.305481 336.507294,101.802193 335.303680,106.711708 
	C335.156555,104.528114 335.063843,103.151772 334.974976,101.384171 
	C337.444763,101.112213 339.910645,101.231529 342.655487,101.623726 
z"/>
<path fill="#F3F3F3" opacity="1.000000" stroke="none" 
	d="
M275.997192,109.338791 
	C276.648865,107.919205 276.858154,106.475029 278.679199,106.035309 
	C278.895111,107.439445 279.379059,109.015923 277.883881,110.115181 
	C277.371338,110.492012 279.152588,112.299545 276.975983,111.754837 
	C275.988861,111.507805 276.068420,110.497063 275.997192,109.338791 
z"/>
<path fill="#FEFEFE" opacity="1.000000" stroke="none" 
	d="
M301.134216,105.675415 
	C300.207092,105.721283 299.400848,105.484383 298.298523,105.126526 
	C297.422607,104.679001 297.104736,104.157784 296.895142,103.228996 
	C297.490906,102.066574 298.401550,102.036362 299.665161,102.019287 
	C301.526215,102.727745 302.323547,103.716843 301.134216,105.675415 
z"/>
<path fill="#C9C9C9" opacity="1.000000" stroke="none" 
	d="
M19.038708,52.564182 
	C16.987108,49.295639 18.160852,45.373966 18.706974,41.234070 
	C19.019667,44.674149 19.016378,48.387611 19.038708,52.564182 
z"/>
<path fill="#F3F3F3" opacity="1.000000" stroke="none" 
	d="
M396.312073,106.207397 
	C396.350952,104.630348 395.092957,102.142677 397.786987,102.359375 
	C399.504852,102.497551 399.044006,104.272003 398.275909,105.777618 
	C397.612976,106.384155 397.155121,106.517708 396.312073,106.207397 
z"/>
<path fill="#F3F3F3" opacity="1.000000" stroke="none" 
	d="
M299.985046,30.480644 
	C300.167419,30.054182 300.347595,30.084146 300.795532,30.176060 
	C301.063293,33.807076 301.063293,37.376137 301.063293,40.945202 
	C300.703156,40.945232 300.343018,40.945263 299.982880,40.945293 
	C299.982880,37.609219 299.982880,34.273144 299.985046,30.480644 
z"/>
<path fill="#C9C9C9" opacity="1.000000" stroke="none" 
	d="
M388.840027,29.315514 
	C385.724792,30.501009 382.324097,29.991888 378.910217,29.067900 
	C382.125183,29.067900 385.340118,29.067900 388.840027,29.315514 
z"/>
<path fill="#F3F3F3" opacity="1.000000" stroke="none" 
	d="
M270.433105,110.976112 
	C270.069702,110.261742 270.045013,109.497902 270.058411,108.352982 
	C271.568939,108.130226 273.041382,108.288536 274.758728,108.723534 
	C273.908417,110.335167 272.148010,110.208900 270.433105,110.976112 
z"/>
<path fill="#F3F3F3" opacity="1.000000" stroke="none" 
	d="
M276.192108,103.052223 
	C276.527405,102.040527 277.438049,101.973335 278.737183,102.023567 
	C279.259552,103.358727 282.703918,104.253174 279.302216,106.001236 
	C278.159698,105.067978 277.319489,104.133461 276.192108,103.052223 
z"/>
<path fill="#C9C9C9" opacity="1.000000" stroke="none" 
	d="
M316.420227,107.048195 
	C313.705414,106.638779 313.776337,105.170319 314.717102,103.233734 
	C314.795471,108.165512 319.392670,104.773071 321.140411,106.516136 
	C319.795868,107.457222 318.252930,106.815567 316.420227,107.048195 
z"/>
<path fill="#F3F3F3" opacity="1.000000" stroke="none" 
	d="
M357.976196,113.025009 
	C357.796539,113.057526 357.633209,113.089409 357.472015,113.080727 
	C356.123047,113.007965 354.838074,114.859634 353.485962,113.252914 
	C353.307709,113.041115 353.505249,112.256912 353.775055,111.966957 
	C355.229370,110.403870 356.392639,111.832756 357.827515,112.699219 
	C358.024628,112.963860 357.993530,113.005585 357.976196,113.025009 
z"/>
<path fill="#F3F3F3" opacity="1.000000" stroke="none" 
	d="
M271.294617,86.726349 
	C271.007874,86.799583 271.019592,86.599983 271.024963,86.098564 
	C271.009644,83.148376 271.000641,80.500008 270.998962,77.399399 
	C272.856232,80.013840 272.035187,83.245377 271.294617,86.726349 
z"/>
<path fill="#F3F3F3" opacity="1.000000" stroke="none" 
	d="
M164.234192,40.681053 
	C166.313171,39.454597 168.639877,40.277443 170.973557,40.272945 
	C168.865540,41.434288 166.656387,40.900806 164.234192,40.681053 
z"/>
<path fill="#FEFEFE" opacity="1.000000" stroke="none" 
	d="
M395.998230,106.000984 
	C396.441986,106.001320 396.887543,106.000664 397.667145,106.006042 
	C398.000793,106.453445 398.000397,106.894829 398.000000,107.667343 
	C397.196106,108.247864 396.392181,108.497261 395.294128,108.874496 
	C395.000000,109.002327 395.000000,109.000000 394.998932,108.999664 
	C394.885590,108.827324 394.773285,108.655327 394.831482,108.226669 
	C395.001953,107.970024 395.000641,107.507675 395.000916,107.276505 
	C395.227783,106.816025 395.453522,106.585907 395.840515,106.175560 
	C396.002594,105.996147 396.000000,106.000000 395.998230,106.000984 
z"/>
<path fill="#FEFEFE" opacity="1.000000" stroke="none" 
	d="
M403.997803,105.358521 
	C404.747620,105.021706 405.498871,105.015480 406.625671,105.017838 
	C407.001221,105.026421 407.000458,105.512711 407.000244,105.755829 
	C406.214233,106.317848 405.428467,106.636734 404.324402,106.984222 
	C404.003815,106.571579 404.001526,106.130341 403.997803,105.358521 
z"/>
<path fill="#F3F3F3" opacity="1.000000" stroke="none" 
	d="
M110.608932,45.044647 
	C110.204903,45.790009 109.796608,45.792530 109.434830,45.267147 
	C109.358749,45.156662 109.360138,44.899647 109.438393,44.791927 
	C109.813568,44.275467 110.221878,44.292522 110.608932,45.044647 
z"/>
<path fill="#F3F3F3" opacity="1.000000" stroke="none" 
	d="
M401.012939,101.013283 
	C400.889587,101.454742 400.754761,101.884880 400.619934,102.315018 
	C399.940613,101.988609 400.280579,101.612030 400.771240,101.110687 
	C400.975586,100.983284 401.001495,101.001961 401.012939,101.013283 
z"/>
<path fill="#F3F3F3" opacity="1.000000" stroke="none" 
	d="
M358.998383,100.997665 
	C359.350342,100.745216 359.702606,100.493149 360.067749,100.261314 
	C360.074280,100.257172 360.234772,100.495506 360.323395,100.620712 
	C360.045807,100.741081 359.768219,100.861443 359.247742,100.993423 
	C359.004883,101.005058 359.000000,101.000061 358.998383,100.997665 
z"/>
<path fill="#F3F3F3" opacity="1.000000" stroke="none" 
	d="
M394.831482,108.063599 
	C395.002197,108.141579 395.002441,108.313133 395.000305,108.742004 
	C394.820160,108.828972 394.626617,108.670792 394.478363,108.477829 
	C394.449341,108.440025 394.595612,108.267540 394.831482,108.063599 
z"/>
<path fill="#F3F3F3" opacity="1.000000" stroke="none" 
	d="
M322.533875,108.550064 
	C322.476257,108.585152 322.591461,108.514984 322.533875,108.550064 
z"/>
<path fill="#F3F3F3" opacity="1.000000" stroke="none" 
	d="
M395.774475,106.104889 
	C395.816193,106.267021 395.629822,106.537910 395.222321,106.927063 
	C395.182953,106.768105 395.364685,106.490875 395.774475,106.104889 
z"/>
<path fill="#F3F3F3" opacity="1.000000" stroke="none" 
	d="
M270.899170,112.768463 
	C270.651001,112.939880 270.385345,112.770325 270.143372,112.230652 
	C270.373810,112.115479 270.612000,112.304459 270.899170,112.768463 
z"/>
<path fill="#F3F3F3" opacity="1.000000" stroke="none" 
	d="
M279.551697,114.463593 
	C279.585815,114.520584 279.517548,114.406609 279.551697,114.463593 
z"/>
<path fill="#FEFEFE" opacity="1.000000" stroke="none" 
	d="
M350.983734,85.508209 
	C339.994690,86.250580 339.996307,86.250580 339.998016,75.152199 
	C340.000031,62.212090 340.211914,49.266663 339.888916,36.334625 
	C339.768127,31.497906 340.789062,29.056429 346.071411,30.015343 
	C347.357483,30.248800 348.719543,30.063444 350.502899,30.112988 
	C351.315369,47.669117 350.445221,65.193268 351.393463,82.703308 
	C351.436920,83.505585 351.139496,84.326332 350.983734,85.508209 
z"/>
<path fill="#FFFFFF" opacity="1.000000" stroke="none" 
	d="
M233.485443,102.853226 
	C235.130051,103.651321 234.999298,104.965485 234.991745,106.617737 
	C232.648117,107.163460 230.635834,106.925537 231.000854,103.358269 
	C231.710312,102.933105 232.421524,102.910149 233.485443,102.853226 
z"/>
<path fill="#FFFFFF" opacity="1.000000" stroke="none" 
	d="
M419.991638,103.358398 
	C420.720703,102.965843 421.450439,102.954903 422.542969,102.930725 
	C424.118958,103.844910 426.089996,104.391510 425.375946,106.456779 
	C425.082733,107.304764 423.910889,107.550491 422.838623,107.371048 
	C420.744781,107.020660 419.665314,105.951157 419.991638,103.358398 
z"/>
<path fill="#FEFEFE" opacity="1.000000" stroke="none" 
	d="
M297.759094,105.779343 
	C298.323181,108.360542 298.657318,110.722000 298.979370,113.483849 
	C298.169342,113.723595 297.270508,113.744110 296.593048,113.366997 
	C294.842529,112.392632 292.088837,115.449913 291.384125,112.781548 
	C290.535461,109.568169 290.514771,105.982765 291.573822,102.648651 
	C291.795715,101.950134 292.730377,102.425903 293.667480,102.783478 
	C294.848969,104.249428 296.406128,104.612457 297.759094,105.779343 
z"/>
<path fill="#FFFFFF" opacity="1.000000" stroke="none" 
	d="
M297.993286,105.750717 
	C296.315674,105.845703 294.110474,106.617096 294.008118,103.325424 
	C294.718994,102.928680 295.439545,102.921761 296.517883,102.915604 
	C297.233551,103.403069 297.591492,103.889755 297.975922,104.691010 
	C298.002441,105.005562 297.997528,105.502342 297.993286,105.750717 
z"/>
</svg>