<?xml version="1.0" encoding="UTF-8"?>
<!DOCTYPE svg PUBLIC "-//W3C//DTD SVG 1.1//EN" "http://www.w3.org/Graphics/SVG/1.1/DTD/svg11.dtd">
<svg xmlns="http://www.w3.org/2000/svg" version="1.1" width="434px" height="121px" style="shape-rendering:geometricPrecision; text-rendering:geometricPrecision; image-rendering:optimizeQuality; fill-rule:evenodd; clip-rule:evenodd" xmlns:xlink="http://www.w3.org/1999/xlink">
<g><path style="opacity:0.011" fill="#fcfcfc" d="M 91.5,5.5 C 90.5084,5.32842 89.8417,5.66175 89.5,6.5C 88.1153,5.69775 88.282,5.03108 90,4.5C 90.7648,4.56993 91.2648,4.90326 91.5,5.5 Z"/></g>
<g><path style="opacity:0.367" fill="#cacaca" d="M 91.5,5.5 C 90.7814,7.76375 90.448,10.0971 90.5,12.5C 89.5386,10.7354 89.2053,8.73535 89.5,6.5C 89.8417,5.66175 90.5084,5.32842 91.5,5.5 Z"/></g>
<g><path style="opacity:0.998" fill="#f9f9f9" d="M 96.5,16.5 C 97.2905,17.4013 98.2905,18.0679 99.5,18.5C 98.1667,19.1667 96.8333,19.8333 95.5,20.5C 94.475,20.8966 94.3083,21.5632 95,22.5C 98.5072,23.6473 101.007,25.3139 102.5,27.5C 104.204,30.2558 105.537,33.2558 106.5,36.5C 106.182,39.4815 107.182,41.8148 109.5,43.5C 109.5,43.8333 109.5,44.1667 109.5,44.5C 109.66,46.153 110.326,47.4863 111.5,48.5C 114.959,55.2122 117.626,62.2122 119.5,69.5C 118.29,72.5197 119.29,74.8531 122.5,76.5C 123.517,79.5436 124.851,82.5436 126.5,85.5C 125.523,88.2869 125.19,91.2869 125.5,94.5C 122.821,97.2696 119.654,97.9362 116,96.5C 115.517,95.552 115.351,94.552 115.5,93.5C 115.592,89.941 114.759,86.6076 113,83.5C 112.601,83.7284 112.435,84.0618 112.5,84.5C 111.662,84.1583 111.328,83.4916 111.5,82.5C 112.484,80.4021 112.151,78.4021 110.5,76.5C 110.769,74.5714 110.269,72.9047 109,71.5C 108.536,72.0944 108.369,72.7611 108.5,73.5C 107.463,72.0697 106.796,70.403 106.5,68.5C 107.051,65.2062 106.051,62.2062 103.5,59.5C 101.621,59.6068 101.288,59.1068 102.5,58C 100.558,56.5277 99.5579,54.5277 99.5,52C 101.611,49.0037 102.945,45.6704 103.5,42C 102.046,39.5932 100.712,37.0932 99.5,34.5C 98.3112,33.5713 96.9778,33.238 95.5,33.5C 95.5,33.1667 95.5,32.8333 95.5,32.5C 96.8333,32.1667 96.8333,31.8333 95.5,31.5C 94.0883,33.6036 93.0883,35.9369 92.5,38.5C 90.3572,46.1006 87.6905,53.4339 84.5,60.5C 81.2071,61.3202 80.8738,62.9869 83.5,65.5C 81.5307,69.3811 79.8641,73.3811 78.5,77.5C 76.7202,78.9899 76.0535,80.9899 76.5,83.5C 76.0319,87.9858 75.0319,92.3191 73.5,96.5C 71.9605,98.8383 71.2938,101.505 71.5,104.5C 72.0514,109.321 69.8848,111.987 65,112.5C 61.7299,111.731 59.5633,109.731 58.5,106.5C 59.8333,105.167 59.8333,103.833 58.5,102.5C 59.5833,98.0778 60.9166,93.7445 62.5,89.5C 65.2112,85.6841 66.5446,81.3507 66.5,76.5C 66.9662,74.7988 66.9662,73.2988 66.5,72C 68.1247,71.1475 68.4581,70.1475 67.5,69C 69.9171,67.8563 70.5838,66.1897 69.5,64C 71.8928,61.6043 73.2262,59.1043 73.5,56.5C 73.4346,56.9382 73.6012,57.2716 74,57.5C 75.0437,56.3774 75.7104,55.0441 76,53.5C 76.9138,54.6537 77.7471,54.487 78.5,53C 77.6634,51.9887 77.33,50.8221 77.5,49.5C 79.4716,46.0157 81.4716,42.349 83.5,38.5C 83.3764,37.8933 83.0431,37.56 82.5,37.5C 82.8333,36.5 83.5,35.8333 84.5,35.5C 85.6737,34.4863 86.3404,33.153 86.5,31.5C 87.5,31.5 88.5,31.5 89.5,31.5C 90.1667,28.8333 90.8333,26.1667 91.5,23.5C 92.1031,21.8103 93.1031,20.3103 94.5,19C 92.9005,17.9342 91.9005,16.4342 91.5,14.5C 92.4719,14.407 93.4719,14.0736 94.5,13.5C 95.1174,13.3893 95.6174,13.056 96,12.5C 96.49,13.7932 96.6567,15.1266 96.5,16.5 Z M 96.5,28.5 C 97.8333,28.5 98.5,29.1667 98.5,30.5C 98.5,29.1667 97.8333,28.5 96.5,28.5 Z"/></g>
<g><path style="opacity:0.408" fill="#d1d1d1" d="M 96.5,16.5 C 98.1788,16.2852 99.1788,16.9519 99.5,18.5C 98.2905,18.0679 97.2905,17.4013 96.5,16.5 Z"/></g>
<g><path style="opacity:0.047" fill="#e7e7e7" d="M 91.5,5.5 C 92.7377,8.40827 93.7377,11.0749 94.5,13.5C 93.4719,14.0736 92.4719,14.407 91.5,14.5C 91.9005,16.4342 92.9005,17.9342 94.5,19C 93.1031,20.3103 92.1031,21.8103 91.5,23.5C 91.5999,20.333 90.9332,17.333 89.5,14.5C 89.8627,13.8165 90.1961,13.1499 90.5,12.5C 90.448,10.0971 90.7814,7.76375 91.5,5.5 Z"/></g>
<g><path style="opacity:0.984" fill="#e9e9e9" d="M 99.5,18.5 C 101.072,21.2154 102.072,24.2154 102.5,27.5C 101.007,25.3139 98.5072,23.6473 95,22.5C 94.3083,21.5632 94.475,20.8966 95.5,20.5C 96.8333,19.8333 98.1667,19.1667 99.5,18.5 Z M 95.5,20.5 C 97.0281,20.5173 97.5281,21.184 97,22.5C 96.2828,21.9558 95.7828,21.2891 95.5,20.5 Z"/></g>
<g><path style="opacity:0.485" fill="#c1c1c1" d="M 5.5,28.5 C 5.5,28.1667 5.5,27.8333 5.5,27.5C 19.8333,27.5 34.1667,27.5 48.5,27.5C 48.8168,31.7016 48.4834,35.7016 47.5,39.5C 47.5,39.1667 47.5,38.8333 47.5,38.5C 47.5,35.1667 47.5,31.8333 47.5,28.5C 33.5,28.5 19.5,28.5 5.5,28.5 Z"/></g>
<g><path style="opacity:0.522" fill="#e2e2e2" d="M 91.5,23.5 C 90.8333,26.1667 90.1667,28.8333 89.5,31.5C 88.5,31.5 87.5,31.5 86.5,31.5C 87.3833,28.2957 89.0499,25.6291 91.5,23.5 Z"/></g>
<g><path style="opacity:1" fill="#fefefe" d="M 5.5,28.5 C 19.5,28.5 33.5,28.5 47.5,28.5C 47.5,31.8333 47.5,35.1667 47.5,38.5C 37.3194,38.1726 27.3194,38.506 17.5,39.5C 16.1667,43.5 16.1667,47.5 17.5,51.5C 17.7828,52.2891 18.2828,52.9558 19,53.5C 27.081,52.5175 35.2476,52.1842 43.5,52.5C 43.5,55.8333 43.5,59.1667 43.5,62.5C 34.5,62.5 25.5,62.5 16.5,62.5C 16.5,69.8333 16.5,77.1667 16.5,84.5C 12.8333,84.5 9.16667,84.5 5.5,84.5C 5.5,65.8333 5.5,47.1667 5.5,28.5 Z"/></g>
<g><path style="opacity:0.305" fill="#d2d2d2" d="M 239.5,39.5 C 239.167,39.5 238.833,39.5 238.5,39.5C 248.319,38.506 258.319,38.1726 268.5,38.5C 268.5,35.1667 268.5,31.8333 268.5,28.5C 254.5,28.5 240.5,28.5 226.5,28.5C 226.5,47.1667 226.5,65.8333 226.5,84.5C 240.833,84.5 255.167,84.5 269.5,84.5C 269.5,84.8333 269.5,85.1667 269.5,85.5C 255.195,85.7169 240.695,85.7169 226,85.5C 225.623,81.9813 225.123,78.4813 224.5,75C 224.935,59.1869 225.102,43.3536 225,27.5C 239.595,27.795 254.262,27.4617 269,26.5C 269.5,27 270,27.5 270.5,28C 269.167,31.6667 269.167,35.3333 270.5,39C 270,39.5 269.5,40 269,40.5C 259.144,39.6635 249.311,39.3301 239.5,39.5 Z"/></g>
<g><path style="opacity:0.999" fill="#fcfcfc" d="M 299.5,28.5 C 303.5,28.5 307.5,28.5 311.5,28.5C 311.183,32.7016 311.517,36.7016 312.5,40.5C 312.073,43.0098 311.407,45.3432 310.5,47.5C 309.448,47.3505 308.448,47.5172 307.5,48C 307.833,48.3333 308.167,48.6667 308.5,49C 307.244,49.4169 306.577,50.2502 306.5,51.5C 305.504,51.5858 304.671,51.2524 304,50.5C 301.849,52.8287 299.349,53.4954 296.5,52.5C 295.833,52.5 295.5,52.1667 295.5,51.5C 296.5,50.5 297.5,49.5 298.5,48.5C 298.5,47.8333 298.833,47.5 299.5,47.5C 300.793,48.6448 301.959,48.3115 303,46.5C 304.128,44.6547 304.628,42.6547 304.5,40.5C 302.833,40.5 301.167,40.5 299.5,40.5C 299.5,36.5 299.5,32.5 299.5,28.5 Z"/></g>
<g><path style="opacity:0.726" fill="#cacaca" d="M 350.5,27.5 C 350.5,28.1667 350.167,28.5 349.5,28.5C 345.833,28.5 342.167,28.5 338.5,28.5C 338.5,47.1667 338.5,65.8333 338.5,84.5C 342.167,84.5 345.833,84.5 349.5,84.5C 350.167,84.5 350.5,84.8333 350.5,85.5C 346.546,85.2594 342.38,85.5927 338,86.5C 337.5,86 337,85.5 336.5,85C 337.493,65.9096 337.826,46.7429 337.5,27.5C 341.833,27.5 346.167,27.5 350.5,27.5 Z"/></g>
<g><path style="opacity:1" fill="#fdfdfd" d="M 349.5,28.5 C 349.5,47.1667 349.5,65.8333 349.5,84.5C 345.833,84.5 342.167,84.5 338.5,84.5C 338.5,65.8333 338.5,47.1667 338.5,28.5C 342.167,28.5 345.833,28.5 349.5,28.5 Z"/></g>
<g><path style="opacity:0.982" fill="#fcfcfc" d="M 376.5,27.5 C 381.952,27.7369 386.952,29.4036 391.5,32.5C 391.491,34.3084 391.991,35.9751 393,37.5C 393.333,37.1667 393.667,36.8333 394,36.5C 394.66,38.3237 395.827,39.657 397.5,40.5C 399.482,43.8103 401.815,46.8103 404.5,49.5C 405.735,52.0797 407.401,54.413 409.5,56.5C 410.167,56.5 410.5,56.1667 410.5,55.5C 411.15,55.8039 411.817,56.1373 412.5,56.5C 413.172,55.0508 413.839,53.7175 414.5,52.5C 414.5,54.8333 414.5,57.1667 414.5,59.5C 413.662,59.8417 413.328,60.5084 413.5,61.5C 413.56,62.0431 413.893,62.3764 414.5,62.5C 415.499,51.1862 415.832,39.8529 415.5,28.5C 419.167,28.5 422.833,28.5 426.5,28.5C 426.5,47.1667 426.5,65.8333 426.5,84.5C 422.958,84.1872 419.625,84.5206 416.5,85.5C 414.478,83.4687 412.811,81.1354 411.5,78.5C 411.489,76.9826 410.823,75.8159 409.5,75C 409.833,74.6667 410.167,74.3333 410.5,74C 408.804,72.8236 407.138,71.657 405.5,70.5C 404.003,67.5279 402.003,64.8612 399.5,62.5C 395.503,58.8657 392.169,55.1991 389.5,51.5C 388.562,60.8032 388.229,71.8032 388.5,84.5C 384.298,84.1832 380.298,84.5166 376.5,85.5C 375.174,66.7363 375.174,47.403 376.5,27.5 Z"/></g>
<g><path style="opacity:0.982" fill="#d7d7d7" d="M 376.5,27.5 C 380.514,27.3345 384.514,27.5012 388.5,28C 390.141,29.129 391.141,30.629 391.5,32.5C 386.952,29.4036 381.952,27.7369 376.5,27.5 Z"/></g>
<g><path style="opacity:0.918" fill="#ececec" d="M 5.5,27.5 C 5.5,27.8333 5.5,28.1667 5.5,28.5C 5.5,47.1667 5.5,65.8333 5.5,84.5C 4.83333,84.5 4.5,84.8333 4.5,85.5C 3.52491,66.495 3.19158,47.495 3.5,28.5C 4.03625,26.8551 4.70291,26.5218 5.5,27.5 Z"/></g>
<g><path style="opacity:0.999" fill="#fcfcfc" d="M 182.5,30.5 C 184.38,30.2291 185.713,30.8958 186.5,32.5C 187.795,33.4884 189.128,34.4884 190.5,35.5C 192.5,35.5 193.5,36.5 193.5,38.5C 192.797,40.0343 192.964,41.701 194,43.5C 194.342,41.3808 195.175,41.0474 196.5,42.5C 197.338,42.8417 197.672,43.5084 197.5,44.5C 197.263,45.791 197.596,46.791 198.5,47.5C 200.378,48.9345 201.045,50.6011 200.5,52.5C 199.167,55.1667 199.167,57.8333 200.5,60.5C 199.527,67.1277 196.527,72.4611 191.5,76.5C 188.953,77.9336 186.619,79.6002 184.5,81.5C 183.942,82.7899 182.942,83.6232 181.5,84C 179.134,84.4396 176.801,84.9396 174.5,85.5C 166.016,84.507 157.349,84.1736 148.5,84.5C 147.514,66.2431 147.18,47.9098 147.5,29.5C 157.839,29.3335 168.172,29.5002 178.5,30C 179.564,31.5106 180.897,31.6772 182.5,30.5 Z M 160.5,39.5 C 164.085,39.3966 167.752,39.73 171.5,40.5C 173.903,40.448 176.236,40.7814 178.5,41.5C 180.833,44.1667 183.167,46.8333 185.5,49.5C 184.696,51.8364 185.029,54.1698 186.5,56.5C 185.313,60.2563 184.313,63.923 183.5,67.5C 180.386,69.9647 177.053,71.9647 173.5,73.5C 172.833,73.5 172.167,73.5 171.5,73.5C 167.774,73.8226 164.107,73.4892 160.5,72.5C 160.606,61.3884 160.606,50.3884 160.5,39.5 Z"/></g>
<g><path style="opacity:0.999" fill="#fdfdfd" d="M 238.5,39.5 C 238.5,43.5 238.5,47.5 238.5,51.5C 247.167,51.5 255.833,51.5 264.5,51.5C 264.5,54.8333 264.5,58.1667 264.5,61.5C 255.833,61.5 247.167,61.5 238.5,61.5C 238.5,65.8333 238.5,70.1667 238.5,74.5C 248.833,74.5 259.167,74.5 269.5,74.5C 269.5,77.8333 269.5,81.1667 269.5,84.5C 255.167,84.5 240.833,84.5 226.5,84.5C 226.5,65.8333 226.5,47.1667 226.5,28.5C 240.5,28.5 254.5,28.5 268.5,28.5C 268.5,31.8333 268.5,35.1667 268.5,38.5C 258.319,38.1726 248.319,38.506 238.5,39.5 Z"/></g>
<g><path style="opacity:0.188" fill="#dddddd" d="M 312.5,40.5 C 311.517,36.7016 311.183,32.7016 311.5,28.5C 307.5,28.5 303.5,28.5 299.5,28.5C 299.5,28.1667 299.5,27.8333 299.5,27.5C 303.767,27.797 307.934,27.4637 312,26.5C 313.588,31.2765 313.755,35.9432 312.5,40.5 Z"/></g>
<g><path style="opacity:0.924" fill="#f3f3f3" d="M 350.5,27.5 C 351.833,46.8333 351.833,66.1667 350.5,85.5C 350.5,84.8333 350.167,84.5 349.5,84.5C 349.5,65.8333 349.5,47.1667 349.5,28.5C 350.167,28.5 350.5,28.1667 350.5,27.5 Z"/></g>
<g><path style="opacity:0.66" fill="#dddddd" d="M 96.5,28.5 C 96.7352,27.9033 97.2352,27.5699 98,27.5C 99.3877,29.1052 100.888,30.6052 102.5,32C 102.201,33.3204 102.034,34.8204 102,36.5C 101.722,35.5842 101.222,34.9175 100.5,34.5C 100.34,32.847 99.6737,31.5137 98.5,30.5C 98.5,29.1667 97.8333,28.5 96.5,28.5 Z"/></g>
<g><path style="opacity:0.2" fill="#d8d8d8" d="M 186.5,32.5 C 188.973,32.0882 190.306,33.0882 190.5,35.5C 189.128,34.4884 187.795,33.4884 186.5,32.5 Z"/></g>
<g><path style="opacity:0.408" fill="#d8d8d8" d="M 86.5,31.5 C 86.3404,33.153 85.6737,34.4863 84.5,35.5C 83.5714,33.6783 84.2381,32.3449 86.5,31.5 Z"/></g>
<g><path style="opacity:0.998" fill="#e7e7e7" d="M 391.5,32.5 C 392.496,32.4142 393.329,32.7476 394,33.5C 395.45,35.7571 396.617,38.0905 397.5,40.5C 395.827,39.657 394.66,38.3237 394,36.5C 393.667,36.8333 393.333,37.1667 393,37.5C 391.991,35.9751 391.491,34.3084 391.5,32.5 Z"/></g>
<g><path style="opacity:0.871" fill="#dadada" d="M 95.5,31.5 C 95.5,31.8333 95.5,32.1667 95.5,32.5C 95.5,32.8333 95.5,33.1667 95.5,33.5C 95.2503,35.674 94.2503,37.3406 92.5,38.5C 93.0883,35.9369 94.0883,33.6036 95.5,31.5 Z"/></g>
<g><path style="opacity:0.876" fill="#ebebeb" d="M 17.5,39.5 C 27.3194,38.506 37.3194,38.1726 47.5,38.5C 47.5,38.8333 47.5,39.1667 47.5,39.5C 37.4576,39.9641 27.4576,39.9641 17.5,39.5 Z"/></g>
<g><path style="opacity:0.98" fill="#dedede" d="M 106.5,36.5 C 107.912,38.6036 108.912,40.9369 109.5,43.5C 107.182,41.8148 106.182,39.4815 106.5,36.5 Z"/></g>
<g><path style="opacity:0.978" fill="#e2e2e2" d="M 178.5,41.5 C 176.236,40.7814 173.903,40.448 171.5,40.5C 174.384,37.533 176.717,37.8664 178.5,41.5 Z"/></g>
<g><path style="opacity:0.977" fill="#e4e4e4" d="M 193.5,38.5 C 195.262,39.2623 196.262,40.5956 196.5,42.5C 195.175,41.0474 194.342,41.3808 194,43.5C 192.964,41.701 192.797,40.0343 193.5,38.5 Z"/></g>
<g><path style="opacity:0.949" fill="#e1e1e1" d="M 82.5,37.5 C 83.0431,37.56 83.3764,37.8933 83.5,38.5C 81.4716,42.349 79.4716,46.0157 77.5,49.5C 77.3893,48.8826 77.056,48.3826 76.5,48C 78.6068,44.457 80.6068,40.957 82.5,37.5 Z"/></g>
<g><path style="opacity:0.778" fill="#cdcdcd" d="M 416.5,85.5 C 419.625,84.5206 422.958,84.1872 426.5,84.5C 426.5,65.8333 426.5,47.1667 426.5,28.5C 422.833,28.5 419.167,28.5 415.5,28.5C 415.832,39.8529 415.499,51.1862 414.5,62.5C 413.893,62.3764 413.56,62.0431 413.5,61.5C 414.338,61.1583 414.672,60.4916 414.5,59.5C 414.5,57.1667 414.5,54.8333 414.5,52.5C 414.802,44.4441 414.469,36.4441 413.5,28.5C 418.467,27.3377 423.467,27.1711 428.5,28C 427.167,47 427.167,66 428.5,85C 427.584,85.3742 426.75,85.8742 426,86.5C 422.626,85.6261 419.459,85.2928 416.5,85.5 Z"/></g>
<g><path style="opacity:0.529" fill="#dfdfdf" d="M 397.5,40.5 C 398.496,40.4142 399.329,40.7476 400,41.5C 402.157,43.8171 403.657,46.4838 404.5,49.5C 401.815,46.8103 399.482,43.8103 397.5,40.5 Z"/></g>
<g><path style="opacity:0.748" fill="#cfcfcf" d="M 17.5,39.5 C 17.5,43.5 17.5,47.5 17.5,51.5C 16.1667,47.5 16.1667,43.5 17.5,39.5 Z"/></g>
<g><path style="opacity:0.059" fill="#e1e1e1" d="M 185.5,49.5 C 183.167,46.8333 180.833,44.1667 178.5,41.5C 179.117,41.3893 179.617,41.056 180,40.5C 182.483,43.1393 184.316,46.1393 185.5,49.5 Z"/></g>
<g><path style="opacity:0.533" fill="#d2d2d2" d="M 197.5,44.5 C 199.481,45.1054 199.815,46.1054 198.5,47.5C 197.596,46.791 197.263,45.791 197.5,44.5 Z"/></g>
<g><path style="opacity:0.604" fill="#d0d0d0" d="M 109.5,44.5 C 111.104,45.287 111.771,46.6203 111.5,48.5C 110.326,47.4863 109.66,46.153 109.5,44.5 Z"/></g>
<g><path style="opacity:0.898" fill="#dddddd" d="M 299.5,27.5 C 299.5,27.8333 299.5,28.1667 299.5,28.5C 299.5,32.5 299.5,36.5 299.5,40.5C 301.167,40.5 302.833,40.5 304.5,40.5C 304.628,42.6547 304.128,44.6547 303,46.5C 301.959,48.3115 300.793,48.6448 299.5,47.5C 302.091,46.4755 302.924,44.8089 302,42.5C 302.654,43.6956 303.154,43.6956 303.5,42.5C 301.5,41.8333 299.5,41.1667 297.5,40.5C 298.833,36.5 298.833,32.5 297.5,28.5C 298.036,26.8551 298.703,26.5218 299.5,27.5 Z"/></g>
<g><path style="opacity:0.103" fill="#e7e7e7" d="M 182.5,30.5 C 180.897,31.6772 179.564,31.5106 178.5,30C 168.172,29.5002 157.839,29.3335 147.5,29.5C 147.18,47.9098 147.514,66.2431 148.5,84.5C 147.833,84.5 147.5,84.8333 147.5,85.5C 146.286,79.5391 145.619,73.3724 145.5,67C 145.195,53.7633 145.529,40.5966 146.5,27.5C 156.506,27.3335 166.506,27.5002 176.5,28C 178.852,28.2401 180.852,29.0735 182.5,30.5 Z"/></g>
<g><path style="opacity:0.475" fill="#cfcfcf" d="M 298.5,48.5 C 297.5,49.5 296.5,50.5 295.5,51.5C 295.586,50.5041 295.252,49.6708 294.5,49C 295.793,48.51 297.127,48.3433 298.5,48.5 Z"/></g>
<g><path style="opacity:0.84" fill="#dedede" d="M 238.5,39.5 C 238.833,39.5 239.167,39.5 239.5,39.5C 240.083,43.083 240.083,46.7497 239.5,50.5C 248.042,50.7899 256.542,50.4565 265,49.5C 265.5,49.8333 266,50.1667 266.5,50.5C 265.583,53.7577 265.249,57.091 265.5,60.5C 265.5,60.8333 265.5,61.1667 265.5,61.5C 265.167,61.5 264.833,61.5 264.5,61.5C 264.5,58.1667 264.5,54.8333 264.5,51.5C 255.833,51.5 247.167,51.5 238.5,51.5C 238.5,47.5 238.5,43.5 238.5,39.5 Z"/></g>
<g><path style="opacity:0.184" fill="#e1e1e1" d="M 310.5,47.5 C 310.043,49.7727 308.71,51.106 306.5,51.5C 306.577,50.2502 307.244,49.4169 308.5,49C 308.167,48.6667 307.833,48.3333 307.5,48C 308.448,47.5172 309.448,47.3505 310.5,47.5 Z"/></g>
<g><path style="opacity:0.913" fill="#ececec" d="M 17.5,51.5 C 26.1667,51.5 34.8333,51.5 43.5,51.5C 43.5,51.8333 43.5,52.1667 43.5,52.5C 35.2476,52.1842 27.081,52.5175 19,53.5C 18.2828,52.9558 17.7828,52.2891 17.5,51.5 Z"/></g>
<g><path style="opacity:0.428" fill="#cbcbcb" d="M 160.5,39.5 C 160.606,50.3884 160.606,61.3884 160.5,72.5C 164.107,73.4892 167.774,73.8226 171.5,73.5C 167.702,74.4834 163.702,74.8168 159.5,74.5C 159.172,62.6547 159.505,50.988 160.5,39.5 Z"/></g>
<g><path style="opacity:0.914" fill="#e4e4e4" d="M 404.5,49.5 C 406.923,50.9501 408.923,52.9501 410.5,55.5C 409.833,55.5 409.5,55.8333 409.5,56.5C 407.401,54.413 405.735,52.0797 404.5,49.5 Z"/></g>
<g><path style="opacity:1" fill="#e9e9e9" d="M 77.5,49.5 C 77.33,50.8221 77.6634,51.9887 78.5,53C 77.7471,54.487 76.9138,54.6537 76,53.5C 75.7104,55.0441 75.0437,56.3774 74,57.5C 73.6012,57.2716 73.4346,56.9382 73.5,56.5C 74.0951,53.6829 75.4284,51.3495 77.5,49.5 Z"/></g>
<g><path style="opacity:0.549" fill="#c4c4c4" d="M 389.5,51.5 C 389.622,62.7381 389.622,74.0714 389.5,85.5C 385.167,85.5 380.833,85.5 376.5,85.5C 380.298,84.5166 384.298,84.1832 388.5,84.5C 388.229,71.8032 388.562,60.8032 389.5,51.5 Z"/></g>
<g><path style="opacity:0.694" fill="#e1e1e1" d="M 306.5,51.5 C 303.735,53.6316 300.568,54.965 297,55.5C 295.272,54.6477 295.105,53.6477 296.5,52.5C 299.349,53.4954 301.849,52.8287 304,50.5C 304.671,51.2524 305.504,51.5858 306.5,51.5 Z"/></g>
<g><path style="opacity:0.329" fill="#dadada" d="M 200.5,52.5 C 200.937,55.0509 200.937,57.7175 200.5,60.5C 199.167,57.8333 199.167,55.1667 200.5,52.5 Z"/></g>
<g><path style="opacity:0.029" fill="#ebebeb" d="M 185.5,49.5 C 186.103,51.1897 187.103,52.6897 188.5,54C 186.584,57.4676 186.251,60.9676 187.5,64.5C 186.923,66.5499 185.59,67.5499 183.5,67.5C 184.313,63.923 185.313,60.2563 186.5,56.5C 185.029,54.1698 184.696,51.8364 185.5,49.5 Z"/></g>
<g><path style="opacity:0.98" fill="#e1e1e1" d="M 84.5,60.5 C 83.962,62.1172 83.6287,63.7839 83.5,65.5C 80.8738,62.9869 81.2071,61.3202 84.5,60.5 Z"/></g>
<g><path style="opacity:0.009" fill="#fcfcfc" d="M 265.5,60.5 C 266.404,61.209 266.737,62.209 266.5,63.5C 265.209,63.7373 264.209,63.404 263.5,62.5C 264.492,62.6716 265.158,62.3382 265.5,61.5C 265.5,61.1667 265.5,60.8333 265.5,60.5 Z"/></g>
<g><path style="opacity:0.91" fill="#e1e1e1" d="M 103.5,59.5 C 106.051,62.2062 107.051,65.2062 106.5,68.5C 105.307,65.9476 103.973,63.4476 102.5,61C 103.056,60.6174 103.389,60.1174 103.5,59.5 Z"/></g>
<g><path style="opacity:0.484" fill="#e2e2e2" d="M 399.5,62.5 C 402.003,64.8612 404.003,67.5279 405.5,70.5C 402.529,68.5574 400.529,65.8908 399.5,62.5 Z"/></g>
<g><path style="opacity:0.843" fill="#dfdfdf" d="M 183.5,67.5 C 181.528,71.4968 178.194,73.4968 173.5,73.5C 177.053,71.9647 180.386,69.9647 183.5,67.5 Z"/></g>
<g><path style="opacity:0.939" fill="#e1e1e1" d="M 110.5,76.5 C 109.094,76.0269 108.427,75.0269 108.5,73.5C 108.369,72.7611 108.536,72.0944 109,71.5C 110.269,72.9047 110.769,74.5714 110.5,76.5 Z"/></g>
<g><path style="opacity:0.975" fill="#e2e2e2" d="M 405.5,70.5 C 407.138,71.657 408.804,72.8236 410.5,74C 410.167,74.3333 409.833,74.6667 409.5,75C 410.823,75.8159 411.489,76.9826 411.5,78.5C 409.016,76.1997 407.016,73.5331 405.5,70.5 Z"/></g>
<g><path style="opacity:0.641" fill="#c7c7c7" d="M 264.5,61.5 C 264.833,61.5 265.167,61.5 265.5,61.5C 265.158,62.3382 264.492,62.6716 263.5,62.5C 255.457,62.5646 247.623,62.5646 240,62.5C 239.071,66.2441 239.571,69.7441 241.5,73C 250.494,73.4998 259.494,73.6664 268.5,73.5C 269.167,73.5 269.5,73.8333 269.5,74.5C 259.167,74.5 248.833,74.5 238.5,74.5C 238.5,70.1667 238.5,65.8333 238.5,61.5C 247.167,61.5 255.833,61.5 264.5,61.5 Z"/></g>
<g><path style="opacity:0.133" fill="#e4e4e4" d="M 268.5,73.5 C 268.56,72.9569 268.893,72.6236 269.5,72.5C 270.811,76.9838 270.811,81.3171 269.5,85.5C 269.5,85.1667 269.5,84.8333 269.5,84.5C 269.5,81.1667 269.5,77.8333 269.5,74.5C 269.5,73.8333 269.167,73.5 268.5,73.5 Z"/></g>
<g><path style="opacity:0.102" fill="#e0e0e0" d="M 119.5,69.5 C 121.065,71.5093 122.065,73.8427 122.5,76.5C 119.29,74.8531 118.29,72.5197 119.5,69.5 Z"/></g>
<g><path style="opacity:0.978" fill="#dfdfdf" d="M 78.5,77.5 C 78.405,79.7857 77.7384,81.7857 76.5,83.5C 76.0535,80.9899 76.7202,78.9899 78.5,77.5 Z"/></g>
<g><path style="opacity:0.52" fill="#e5e5e5" d="M 110.5,76.5 C 112.151,78.4021 112.484,80.4021 111.5,82.5C 109.849,80.5979 109.516,78.5979 110.5,76.5 Z"/></g>
<g><path style="opacity:0.11" fill="#dedede" d="M 191.5,76.5 C 191.586,77.4959 191.252,78.3292 190.5,79C 188.783,80.5588 186.783,81.3921 184.5,81.5C 186.619,79.6002 188.953,77.9336 191.5,76.5 Z"/></g>
<g><path style="opacity:0.622" fill="#c7c7c7" d="M 43.5,51.5 C 44.4834,55.2984 44.8168,59.2984 44.5,63.5C 35.5,63.5 26.5,63.5 17.5,63.5C 17.5,70.8333 17.5,78.1667 17.5,85.5C 12.8572,85.6073 8.52384,85.6073 4.5,85.5C 4.5,84.8333 4.83333,84.5 5.5,84.5C 9.16667,84.5 12.8333,84.5 16.5,84.5C 16.5,77.1667 16.5,69.8333 16.5,62.5C 25.5,62.5 34.5,62.5 43.5,62.5C 43.5,59.1667 43.5,55.8333 43.5,52.5C 43.5,52.1667 43.5,51.8333 43.5,51.5 Z"/></g>
<g><path style="opacity:0.623" fill="#c5c5c5" d="M 148.5,84.5 C 157.349,84.1736 166.016,84.507 174.5,85.5C 165.193,85.5493 156.193,85.5493 147.5,85.5C 147.5,84.8333 147.833,84.5 148.5,84.5 Z"/></g>
<g><path style="opacity:0.969" fill="#e4e4e4" d="M 66.5,76.5 C 66.5446,81.3507 65.2112,85.6841 62.5,89.5C 62.5305,84.9956 63.8639,80.6623 66.5,76.5 Z"/></g>
<g><path style="opacity:0.906" fill="#e4e4e4" d="M 115.5,93.5 C 113.451,93.2942 113.117,92.4609 114.5,91C 113.643,90.3109 112.977,89.4776 112.5,88.5C 113.363,87.2736 113.363,85.9403 112.5,84.5C 112.435,84.0618 112.601,83.7284 113,83.5C 114.759,86.6076 115.592,89.941 115.5,93.5 Z"/></g>
<g><path style="opacity:0.996" fill="#e2e2e2" d="M 126.5,85.5 C 126.938,87.126 127.272,88.7927 127.5,90.5C 127.66,92.3545 126.993,93.6879 125.5,94.5C 125.19,91.2869 125.523,88.2869 126.5,85.5 Z"/></g>
<g><path style="opacity:0.66" fill="#e0e0e0" d="M 73.5,96.5 C 73.7062,99.4951 73.0395,102.162 71.5,104.5C 71.2938,101.505 71.9605,98.8383 73.5,96.5 Z"/></g>
<g><path style="opacity:0.99" fill="#fafafa" d="M 270.5,101.5 C 270.5,102.833 270.5,104.167 270.5,105.5C 271.609,106.29 272.942,106.79 274.5,107C 272.942,107.21 271.609,107.71 270.5,108.5C 271.494,110.334 271.494,112.001 270.5,113.5C 268.334,109.442 268.001,105.108 269.5,100.5C 270.107,100.624 270.44,100.957 270.5,101.5 Z"/></g>
<g><path style="opacity:0.771" fill="#d9d9d9" d="M 321.5,102.5 C 321.5,102.167 321.5,101.833 321.5,101.5C 318.375,100.521 315.042,100.187 311.5,100.5C 311.176,104.555 311.509,108.555 312.5,112.5C 313.107,112.376 313.44,112.043 313.5,111.5C 313.833,111.5 314.167,111.5 314.5,111.5C 316.833,112.833 319.167,112.833 321.5,111.5C 323.76,112.238 323.927,113.238 322,114.5C 317.984,113.892 313.984,113.559 310,113.5C 310.378,108.92 310.545,104.254 310.5,99.5C 314.514,99.3345 318.514,99.5012 322.5,100C 323.883,101.461 323.549,102.294 321.5,102.5 Z"/></g>
<g><path style="opacity:0.603" fill="#cccccc" d="M 341.5,100.5 C 339.901,100.232 338.568,100.566 337.5,101.5C 336.5,101.5 335.5,101.5 334.5,101.5C 333.85,101.196 333.183,100.863 332.5,100.5C 332.167,102.5 331.833,104.5 331.5,106.5C 331.539,108.952 332.206,110.952 333.5,112.5C 332.791,113.404 331.791,113.737 330.5,113.5C 330.347,109.083 330.347,104.416 330.5,99.5C 334.371,99.185 338.038,99.5184 341.5,100.5 Z"/></g>
<g><path style="opacity:1" fill="#e4e4e4" d="M 360.5,102.5 C 358.95,101.28 357.284,101.28 355.5,102.5C 355.591,100.302 354.925,99.9689 353.5,101.5C 354.574,99.7845 356.241,98.7845 358.5,98.5C 361.452,99.0678 364.119,100.234 366.5,102C 364.45,103.332 362.45,103.498 360.5,102.5 Z"/></g>
<g><path style="opacity:0.305" fill="#cbcbcb" d="M 382.5,104.5 C 380.393,105.468 378.059,105.802 375.5,105.5C 375.785,103.712 375.452,102.045 374.5,100.5C 373.167,104.5 373.167,108.5 374.5,112.5C 375.466,110.604 375.799,108.604 375.5,106.5C 378.059,106.198 380.393,106.532 382.5,107.5C 380.5,107.5 378.5,107.5 376.5,107.5C 376.662,109.527 376.495,111.527 376,113.5C 375.259,114.641 374.425,114.641 373.5,113.5C 372.507,108.88 372.173,104.214 372.5,99.5C 373.833,99.5 375.167,99.5 376.5,99.5C 376.5,101.167 376.5,102.833 376.5,104.5C 378.5,104.5 380.5,104.5 382.5,104.5 Z"/></g>
<g><path style="opacity:0.601" fill="#d0d0d0" d="M 386.5,100.5 C 386.491,104.689 386.158,109.022 385.5,113.5C 384.5,113.5 383.5,113.5 382.5,113.5C 382.5,112.167 382.5,110.833 382.5,109.5C 382.5,108.833 382.5,108.167 382.5,107.5C 383.302,108.952 383.802,110.618 384,112.5C 384.667,108.5 384.667,104.5 384,100.5C 383.79,102.058 383.29,103.391 382.5,104.5C 382.5,102.833 382.5,101.167 382.5,99.5C 384.099,99.2322 385.432,99.5655 386.5,100.5 Z"/></g>
<g><path style="opacity:0.983" fill="#f2f2f2" d="M 418.5,105.5 C 420.099,105.768 421.432,105.434 422.5,104.5C 424.55,103.678 424.217,102.678 421.5,101.5C 422.568,100.566 423.901,100.232 425.5,100.5C 428.127,103.377 427.794,106.044 424.5,108.5C 422.393,107.532 420.059,107.198 417.5,107.5C 417.785,109.288 417.452,110.955 416.5,112.5C 415.167,108.5 415.167,104.5 416.5,100.5C 417.029,102.947 417.696,104.613 418.5,105.5 Z M 421.5,101.5 C 424.217,102.678 424.55,103.678 422.5,104.5C 421.432,105.434 420.099,105.768 418.5,105.5C 419.791,104.527 419.791,103.527 418.5,102.5C 419.325,101.614 420.325,101.281 421.5,101.5 Z"/></g>
<g><path style="opacity:0.969" fill="#e3e3e3" d="M 255.5,100.5 C 254.624,100.369 253.957,100.702 253.5,101.5C 254.653,102.687 254.653,103.687 253.5,104.5C 253.565,104.062 253.399,103.728 253,103.5C 250.502,106.101 251.002,107.435 254.5,107.5C 254.445,108.469 253.445,109.136 251.5,109.5C 245.589,116.771 243.756,115.771 246,106.5C 246.333,107.5 246.667,108.5 247,109.5C 248.467,106.242 249.633,102.908 250.5,99.5C 252.415,99.2155 254.081,99.5489 255.5,100.5 Z"/></g>
<g><path style="opacity:0.476" fill="#c8c8c8" d="M 298.5,99.5 C 296.393,100.468 294.059,100.802 291.5,100.5C 289.577,104.029 288.911,108.029 289.5,112.5C 290.5,112.5 291.5,112.5 292.5,112.5C 294.5,112.5 296.5,112.5 298.5,112.5C 295.024,113.643 291.358,113.81 287.5,113C 288.467,108.599 288.8,104.099 288.5,99.5C 291.833,99.5 295.167,99.5 298.5,99.5 Z"/></g>
<g><path style="opacity:0.984" fill="#ededed" d="M 321.5,101.5 C 318.833,101.5 316.167,101.5 313.5,101.5C 312.566,102.568 312.232,103.901 312.5,105.5C 315.385,105.806 318.052,105.473 320.5,104.5C 321.833,105.833 321.833,107.167 320.5,108.5C 318.393,107.532 316.059,107.198 313.5,107.5C 313.5,108.833 313.5,110.167 313.5,111.5C 313.44,112.043 313.107,112.376 312.5,112.5C 311.509,108.555 311.176,104.555 311.5,100.5C 315.042,100.187 318.375,100.521 321.5,101.5 Z"/></g>
<g><path style="opacity:0.706" fill="#cdcdcd" d="M 313.5,101.5 C 313.281,102.675 313.614,103.675 314.5,104.5C 316.003,103.948 317.669,103.948 319.5,104.5C 319.833,104.5 320.167,104.5 320.5,104.5C 318.052,105.473 315.385,105.806 312.5,105.5C 312.232,103.901 312.566,102.568 313.5,101.5 Z"/></g>
<g><path style="opacity:0.012" fill="#fafafa" d="M 386.5,100.5 C 387.525,100.897 387.692,101.563 387,102.5C 386.536,101.906 386.369,101.239 386.5,100.5 Z"/></g>
<g><path style="opacity:0.969" fill="#ebebeb" d="M 398.5,98.5 C 401.374,98.6234 403.874,99.6234 406,101.5C 406.669,98.9722 407.502,98.9722 408.5,101.5C 407.958,105.311 406.958,108.978 405.5,112.5C 399.314,115.793 394.647,114.293 391.5,108C 392.557,103.648 394.891,100.482 398.5,98.5 Z M 398.5,101.5 C 400.635,101.147 401.968,101.98 402.5,104C 401.777,106.553 400.444,108.72 398.5,110.5C 398.94,109.047 398.274,107.881 396.5,107C 397.477,105.318 398.144,103.484 398.5,101.5 Z M 401.5,109.5 C 401.783,108.711 402.283,108.044 403,107.5C 403.528,108.816 403.028,109.483 401.5,109.5 Z"/></g>
<g><path style="opacity:0.296" fill="#d4d4d4" d="M 235.5,99.5 C 232.713,100.477 229.713,100.81 226.5,100.5C 226.5,104.5 226.5,108.5 226.5,112.5C 229.5,112.5 232.5,112.5 235.5,112.5C 232.437,113.201 229.27,113.868 226,114.5C 225.5,114 225,113.5 224.5,113C 224.333,108.555 224.666,104.055 225.5,99.5C 228.833,99.5 232.167,99.5 235.5,99.5 Z"/></g>
<g><path style="opacity:0.011" fill="#fcfcfc" d="M 272.5,102.5 C 275.137,104.154 274.803,104.654 271.5,104C 272.056,103.617 272.389,103.117 272.5,102.5 Z"/></g>
<g><path style="opacity:0.007" fill="#fdfdfd" d="M 321.5,102.5 C 321.167,103.167 320.833,103.833 320.5,104.5C 320.167,104.5 319.833,104.5 319.5,104.5C 319.5,103.167 320.167,102.5 321.5,102.5 Z"/></g>
<g><path style="opacity:0.983" fill="#f1f1f1" d="M 337.5,101.5 C 338.568,100.566 339.901,100.232 341.5,100.5C 343.094,101.983 344.76,103.483 346.5,105C 345.041,104.645 343.707,104.811 342.5,105.5C 341.167,104.167 339.833,102.833 338.5,101.5C 338.167,101.5 337.833,101.5 337.5,101.5 Z"/></g>
<g><path style="opacity:0.357" fill="#d7d7d7" d="M 58.5,102.5 C 59.8333,103.833 59.8333,105.167 58.5,106.5C 57.3143,105.295 57.3143,103.961 58.5,102.5 Z"/></g>
<g><path style="opacity:0.008" fill="#fcfdfc" d="M 302.5,103.5 C 303.833,104.167 303.833,104.167 302.5,103.5 Z"/></g>
<g><path style="opacity:0.007" fill="#fcfcfc" d="M 237.5,104.5 C 238.5,104.5 239.5,104.5 240.5,104.5C 240.715,106.179 240.048,107.179 238.5,107.5C 237.833,107.5 237.5,107.167 237.5,106.5C 237.5,105.833 237.5,105.167 237.5,104.5 Z"/></g>
<g><path style="opacity:0.741" fill="#c8c8c8" d="M 291.5,101.5 C 291.833,101.5 292.167,101.5 292.5,101.5C 292.285,103.179 292.952,104.179 294.5,104.5C 295.791,104.263 296.791,104.596 297.5,105.5C 295.5,105.5 293.5,105.5 291.5,105.5C 291.5,104.167 291.5,102.833 291.5,101.5 Z"/></g>
<g><path style="opacity:0.004" fill="#fdfefd" d="M 308.5,104.5 C 309.573,105.251 309.74,106.251 309,107.5C 308.517,106.552 308.351,105.552 308.5,104.5 Z"/></g>
<g><path style="opacity:0.984" fill="#f5f5f5" d="M 235.5,99.5 C 236.5,99.8333 237.167,100.5 237.5,101.5C 236.778,101.918 236.278,102.584 236,103.5C 235.617,102.944 235.117,102.611 234.5,102.5C 232.958,101.699 231.292,101.366 229.5,101.5C 228.566,102.568 228.232,103.901 228.5,105.5C 230.527,105.338 232.527,105.505 234.5,106C 235.598,106.77 235.598,107.603 234.5,108.5C 233.833,108.5 233.5,108.167 233.5,107.5C 232.081,106.549 230.415,106.216 228.5,106.5C 228.146,108.767 228.479,110.101 229.5,110.5C 230.833,110.167 230.833,109.833 229.5,109.5C 229.5,109.167 229.5,108.833 229.5,108.5C 231.636,108.538 232.969,109.205 233.5,110.5C 233.56,111.043 233.893,111.376 234.5,111.5C 235.642,110.174 236.976,109.174 238.5,108.5C 238.912,110.973 237.912,112.306 235.5,112.5C 232.5,112.5 229.5,112.5 226.5,112.5C 226.5,108.5 226.5,104.5 226.5,100.5C 229.713,100.81 232.713,100.477 235.5,99.5 Z M 229.5,108.5 C 230.568,107.566 231.901,107.232 233.5,107.5C 233.5,108.167 233.833,108.5 234.5,108.5C 234.938,108.435 235.272,108.601 235.5,109C 234.584,109.278 233.918,109.778 233.5,110.5C 232.969,109.205 231.636,108.538 229.5,108.5 Z"/></g>
<g><path style="opacity:0.443" fill="#cecece" d="M 278.5,100.5 C 276.901,100.232 275.568,100.566 274.5,101.5C 273.167,101.5 271.833,101.5 270.5,101.5C 270.44,100.957 270.107,100.624 269.5,100.5C 268.001,105.108 268.334,109.442 270.5,113.5C 268.658,115.034 267.325,114.7 266.5,112.5C 267.439,108.235 267.772,103.902 267.5,99.5C 271.371,99.185 275.038,99.5184 278.5,100.5 Z"/></g>
<g><path style="opacity:0.988" fill="#f9f9f9" d="M 291.5,100.5 C 291.5,100.833 291.5,101.167 291.5,101.5C 291.5,102.833 291.5,104.167 291.5,105.5C 293.5,105.5 295.5,105.5 297.5,105.5C 298.506,106.396 298.506,107.062 297.5,107.5C 297.167,107.5 296.833,107.5 296.5,107.5C 295.081,106.549 293.415,106.216 291.5,106.5C 291.216,108.415 291.549,110.081 292.5,111.5C 292.5,111.833 292.5,112.167 292.5,112.5C 291.5,112.5 290.5,112.5 289.5,112.5C 288.911,108.029 289.577,104.029 291.5,100.5 Z"/></g>
<g><path style="opacity:0.658" fill="#e7e7e7" d="M 298.5,99.5 C 300.687,101.282 301.02,103.448 299.5,106C 300.91,106.368 301.91,107.201 302.5,108.5C 301.359,109.425 301.359,110.259 302.5,111C 301.255,111.791 299.922,112.291 298.5,112.5C 296.5,112.5 294.5,112.5 292.5,112.5C 292.5,112.167 292.5,111.833 292.5,111.5C 294.411,111.426 295.578,110.426 296,108.5C 298.179,109.84 298.679,109.507 297.5,107.5C 298.506,107.062 298.506,106.396 297.5,105.5C 296.791,104.596 295.791,104.263 294.5,104.5C 294.369,103.761 294.536,103.094 295,102.5C 295.718,103.451 296.551,103.617 297.5,103C 296.095,101.731 294.429,101.231 292.5,101.5C 292.167,101.5 291.833,101.5 291.5,101.5C 291.5,101.167 291.5,100.833 291.5,100.5C 294.059,100.802 296.393,100.468 298.5,99.5 Z"/></g>
<g><path style="opacity:0.961" fill="#d6d6d6" d="M 338.5,101.5 C 339.833,102.833 341.167,104.167 342.5,105.5C 342.167,106.167 341.833,106.833 341.5,107.5C 340.833,107.5 340.5,107.833 340.5,108.5C 340.565,108.938 340.399,109.272 340,109.5C 339.768,108.263 339.268,107.263 338.5,106.5C 336.233,106.854 334.899,106.521 334.5,105.5C 338.44,106.234 339.773,104.901 338.5,101.5 Z"/></g>
<g><path style="opacity:0.992" fill="#f9f9f9" d="M 382.5,104.5 C 383.29,103.391 383.79,102.058 384,100.5C 384.667,104.5 384.667,108.5 384,112.5C 383.802,110.618 383.302,108.952 382.5,107.5C 380.393,106.532 378.059,106.198 375.5,106.5C 375.799,108.604 375.466,110.604 374.5,112.5C 373.167,108.5 373.167,104.5 374.5,100.5C 375.452,102.045 375.785,103.712 375.5,105.5C 378.059,105.802 380.393,105.468 382.5,104.5 Z"/></g>
<g><path style="opacity:0.987" fill="#f8f8f8" d="M 334.5,101.5 C 334.577,102.75 335.244,103.583 336.5,104C 335.584,104.278 334.918,104.778 334.5,105.5C 334.899,106.521 336.233,106.854 338.5,106.5C 337.081,107.451 335.415,107.784 333.5,107.5C 333.5,109.167 333.5,110.833 333.5,112.5C 332.206,110.952 331.539,108.952 331.5,106.5C 331.833,104.5 332.167,102.5 332.5,100.5C 333.183,100.863 333.85,101.196 334.5,101.5 Z"/></g>
<g><path style="opacity:0.973" fill="#dcdcdc" d="M 229.5,101.5 C 229.351,102.552 229.517,103.552 230,104.5C 231,103.167 232,103.167 233,104.5C 233.717,103.956 234.217,103.289 234.5,102.5C 235.117,102.611 235.617,102.944 236,103.5C 236.278,102.584 236.778,101.918 237.5,101.5C 237.5,102.5 237.5,103.5 237.5,104.5C 236.167,105.167 236.167,105.833 237.5,106.5C 237.5,107.167 237.833,107.5 238.5,107.5C 238.5,107.833 238.5,108.167 238.5,108.5C 236.976,109.174 235.642,110.174 234.5,111.5C 233.893,111.376 233.56,111.043 233.5,110.5C 233.918,109.778 234.584,109.278 235.5,109C 235.272,108.601 234.938,108.435 234.5,108.5C 235.598,107.603 235.598,106.77 234.5,106C 232.527,105.505 230.527,105.338 228.5,105.5C 228.232,103.901 228.566,102.568 229.5,101.5 Z M 229.5,101.5 C 231.292,101.366 232.958,101.699 234.5,102.5C 234.217,103.289 233.717,103.956 233,104.5C 232,103.167 231,103.167 230,104.5C 229.517,103.552 229.351,102.552 229.5,101.5 Z"/></g>
<g><path style="opacity:0.965" fill="#efefef" d="M 255.5,100.5 C 256.606,101.73 257.606,102.896 258.5,104C 257.729,105.998 258.395,107.665 260.5,109C 259.402,109.77 259.402,110.603 260.5,111.5C 258.805,112.826 257.472,112.493 256.5,110.5C 254.726,109.983 253.059,109.65 251.5,109.5C 253.445,109.136 254.445,108.469 254.5,107.5C 254.443,106.391 254.11,105.391 253.5,104.5C 254.653,103.687 254.653,102.687 253.5,101.5C 253.957,100.702 254.624,100.369 255.5,100.5 Z"/></g>
<g><path style="opacity:0.965" fill="#e3e3e3" d="M 274.5,101.5 C 275.568,100.566 276.901,100.232 278.5,100.5C 279.88,100.962 280.547,101.962 280.5,103.5C 279.935,105.405 278.935,107.071 277.5,108.5C 277.855,109.522 278.522,110.189 279.5,110.5C 279.5,110.833 279.5,111.167 279.5,111.5C 278.811,112.774 277.977,112.774 277,111.5C 276.536,112.094 276.369,112.761 276.5,113.5C 275.711,113.217 275.044,112.717 274.5,112C 275.641,111.259 275.641,110.425 274.5,109.5C 273.311,108.571 271.978,108.238 270.5,108.5C 271.609,107.71 272.942,107.21 274.5,107C 272.942,106.79 271.609,106.29 270.5,105.5C 272.977,105.949 274.977,105.283 276.5,103.5C 276.145,102.478 275.478,101.811 274.5,101.5 Z"/></g>
<g><path style="opacity:0.395" fill="#c4c4c4" d="M 296.5,107.5 C 295.167,107.5 293.833,107.5 292.5,107.5C 292.5,108.833 292.5,110.167 292.5,111.5C 291.549,110.081 291.216,108.415 291.5,106.5C 293.415,106.216 295.081,106.549 296.5,107.5 Z"/></g>
<g><path style="opacity:0.977" fill="#e8e8e8" d="M 338.5,106.5 C 339.268,107.263 339.768,108.263 340,109.5C 340.399,109.272 340.565,108.938 340.5,108.5C 341.167,108.5 341.5,108.167 341.5,107.5C 342.131,109.448 343.131,111.281 344.5,113C 343.407,114.365 342.074,114.699 340.5,114C 339.213,112.59 338.046,111.09 337,109.5C 335.117,110.653 334.284,112.319 334.5,114.5C 332.901,114.768 331.568,114.434 330.5,113.5C 331.791,113.737 332.791,113.404 333.5,112.5C 333.5,110.833 333.5,109.167 333.5,107.5C 335.415,107.784 337.081,107.451 338.5,106.5 Z"/></g>
<g><path style="opacity:0.275" fill="#cacaca" d="M 233.5,107.5 C 231.901,107.232 230.568,107.566 229.5,108.5C 229.5,108.833 229.5,109.167 229.5,109.5C 229.5,109.833 229.5,110.167 229.5,110.5C 228.479,110.101 228.146,108.767 228.5,106.5C 230.415,106.216 232.081,106.549 233.5,107.5 Z"/></g>
<g><path style="opacity:0.012" fill="#fbfbfb" d="M 315.5,110.5 C 314.227,109.923 314.227,109.257 315.5,108.5C 316.463,108.97 316.463,109.637 315.5,110.5 Z"/></g>
<g><path style="opacity:0.004" fill="#fdfefd" d="M 320.5,108.5 C 319.833,109.167 319.833,109.167 320.5,108.5 Z"/></g>
<g><path style="opacity:0.953" fill="#ebebeb" d="M 355.5,102.5 C 356.935,103.096 358.602,103.096 360.5,102.5C 362.131,104.551 363.798,106.885 365.5,109.5C 361.56,115.032 356.894,115.698 351.5,111.5C 351.833,110.5 352.5,109.833 353.5,109.5C 356.193,111.467 358.86,111.633 361.5,110C 360.335,108.916 359.002,108.083 357.5,107.5C 357.167,108.167 356.833,108.833 356.5,109.5C 355.673,107.838 354.507,106.505 353,105.5C 352.235,103.934 352.402,102.601 353.5,101.5C 354.925,99.9689 355.591,100.302 355.5,102.5 Z"/></g>
<g><path style="opacity:0.004" fill="#fdfefd" d="M 380.5,109.5 C 379.833,108.167 379.833,108.167 380.5,109.5 Z"/></g>
<g><path style="opacity:0.02" fill="#f9faf9" d="M 272.5,109.5 C 273.833,110.167 273.833,110.167 272.5,109.5 Z"/></g>
<g><path style="opacity:0.004" fill="#fdfefd" d="M 279.5,109.5 C 280.833,110.167 280.833,110.167 279.5,109.5 Z"/></g>
<g><path style="opacity:0.027" fill="#f9f9f9" d="M 380.5,109.5 C 381.167,109.5 381.833,109.5 382.5,109.5C 382.5,110.833 382.5,112.167 382.5,113.5C 381.326,112.486 380.66,111.153 380.5,109.5 Z"/></g>
<g><path style="opacity:0.241" fill="#d4d4d4" d="M 425.5,100.5 C 423.901,100.232 422.568,100.566 421.5,101.5C 420.325,101.281 419.325,101.614 418.5,102.5C 419.791,103.527 419.791,104.527 418.5,105.5C 417.696,104.613 417.029,102.947 416.5,100.5C 415.167,104.5 415.167,108.5 416.5,112.5C 417.452,110.955 417.785,109.288 417.5,107.5C 420.059,107.198 422.393,107.532 424.5,108.5C 422.5,108.5 420.5,108.5 418.5,108.5C 418.5,110.5 418.5,112.5 418.5,114.5C 417.167,114.5 415.833,114.5 414.5,114.5C 413.463,109.463 413.463,104.463 414.5,99.5C 418.371,99.185 422.038,99.5184 425.5,100.5 Z"/></g>
<g><path style="opacity:0.917" fill="#eeeeee" d="M 315.5,110.5 C 317.565,110.517 319.565,110.85 321.5,111.5C 319.167,112.833 316.833,112.833 314.5,111.5C 315.167,111.5 315.5,111.167 315.5,110.5 Z"/></g>
<g><path style="opacity:0.757" fill="#cecece" d="M 256.5,110.5 C 257.472,112.493 258.805,112.826 260.5,111.5C 259.817,113.176 258.483,113.843 256.5,113.5C 256.5,112.5 256.5,111.5 256.5,110.5 Z"/></g>
<g><path style="opacity:0.612" fill="#d4d4d4" d="M 279.5,111.5 C 280.776,112.386 280.776,113.386 279.5,114.5C 278.583,113.873 277.583,113.539 276.5,113.5C 276.369,112.761 276.536,112.094 277,111.5C 277.977,112.774 278.811,112.774 279.5,111.5 Z"/></g>
</svg>
