<?xml version="1.0" encoding="iso-8859-1"?>
<!-- Generator: Adobe Illustrator 19.0.0, SVG Export Plug-In . SVG Version: 6.00 Build 0)  -->
<svg xmlns="http://www.w3.org/2000/svg" xmlns:xlink="http://www.w3.org/1999/xlink" version="1.1" id="Capa_1" x="0px" y="0px" viewBox="0 0 512 512" style="enable-background:new 0 0 512 512;" xml:space="preserve" width="512px" height="512px">
<g>
	<g>
		<path d="M417.379,3.536C415.48,1.293,412.689,0,409.749,0h-307.5c-2.939,0-5.73,1.293-7.63,3.536    c-1.9,2.243-2.717,5.208-2.233,8.107l61.364,368.183V500.5v1.5c0,5.522,4.477,10,10,10h184.5c5.523,0,10-4.478,10-10v-1.5V379.826    l61.364-368.183C420.096,8.744,419.28,5.779,417.379,3.536z M328.874,20h24v32h-24V20z M284.874,20h24v32h-24V20z M240.874,20h24    v32h-24V20z M196.874,20h24v32h-24V20z M152.874,20h24v32h-24V20z M114.054,20h18.82v32h-13.487L114.054,20z M174.473,492    c4.046-23.537,24.603-41.5,49.277-41.5h64.5c24.674,0,45.231,17.963,49.277,41.5H174.473z M339.777,369h-71.522    c-5.523,0-10,4.478-10,10c0,5.522,4.477,10,10,10h69.994v62.577c-12.716-12.993-30.428-21.077-50-21.077h-64.5    c-19.572,0-37.284,8.084-50,21.077V389h14.506c5.523,0,10-4.478,10-10c0-5.522-4.477-10-10-10H172.22l-49.5-297h266.557    L339.777,369z M392.611,52h-19.737V20h25.07L392.611,52z" fill="#FFFFFF"/>
	</g>
</g>
<g>
	<g>
		<path d="M252.874,122c-38.598,0-70,31.402-70,70c0,38.598,31.402,70,70,70c38.598,0,70-31.402,70-70S291.473,122,252.874,122z     M252.874,242c-27.57,0-50-22.43-50-50s22.43-50,50-50s50,22.43,50,50S280.444,242,252.874,242z" fill="#FFFFFF"/>
	</g>
</g>
<g>
	<g>
		<path d="M238.059,377.05c-0.13-0.64-0.32-1.27-0.57-1.88c-0.25-0.601-0.56-1.18-0.92-1.72c-0.36-0.551-0.78-1.061-1.24-1.521    c-0.46-0.46-0.97-0.88-1.52-1.24c-0.54-0.37-1.13-0.67-1.73-0.92c-0.6-0.25-1.23-0.45-1.87-0.569c-1.29-0.261-2.62-0.261-3.91,0    c-0.64,0.119-1.26,0.319-1.87,0.569c-0.6,0.25-1.18,0.55-1.72,0.92c-0.55,0.36-1.06,0.78-1.52,1.24    c-0.47,0.46-0.88,0.97-1.25,1.521c-0.36,0.54-0.67,1.119-0.92,1.72c-0.25,0.61-0.44,1.24-0.57,1.88s-0.19,1.3-0.19,1.95    c0,0.649,0.06,1.31,0.19,1.95s0.32,1.27,0.57,1.869c0.25,0.61,0.56,1.19,0.92,1.73c0.37,0.55,0.78,1.06,1.25,1.52    c0.46,0.461,0.97,0.881,1.52,1.24c0.54,0.36,1.12,0.67,1.72,0.92c0.61,0.25,1.23,0.45,1.87,0.57c0.65,0.13,1.3,0.2,1.96,0.2    c0.65,0,1.31-0.07,1.95-0.2c0.64-0.12,1.27-0.32,1.87-0.57s1.19-0.56,1.73-0.92c0.55-0.359,1.06-0.779,1.52-1.24    c0.46-0.46,0.88-0.97,1.24-1.52c0.36-0.54,0.67-1.12,0.92-1.73c0.25-0.6,0.44-1.229,0.57-1.869c0.13-0.641,0.2-1.301,0.2-1.95    C238.259,378.35,238.189,377.689,238.059,377.05z" fill="#FFFFFF"/>
	</g>
</g>
<g>
</g>
<g>
</g>
<g>
</g>
<g>
</g>
<g>
</g>
<g>
</g>
<g>
</g>
<g>
</g>
<g>
</g>
<g>
</g>
<g>
</g>
<g>
</g>
<g>
</g>
<g>
</g>
<g>
</g>
</svg>
