<?xml version="1.0" encoding="iso-8859-1"?>
<!-- Generator: Adobe Illustrator 19.0.0, SVG Export Plug-In . SVG Version: 6.00 Build 0)  -->
<svg xmlns="http://www.w3.org/2000/svg" xmlns:xlink="http://www.w3.org/1999/xlink" version="1.1" id="Capa_1" x="0px" y="0px" viewBox="0 0 512 512" style="enable-background:new 0 0 512 512;" xml:space="preserve" width="512px" height="512px">
<g>
	<g>
		<path d="M376.059,0H135.941c-5.525,0-10.005,4.479-10.005,10.005v119.558c0,5.526,4.48,10.005,10.005,10.005h54.173    c6.349,17.744,19.398,31.794,35.871,39.566v92.748H215.98c-5.525,0-10.005,4.479-10.005,10.005v180.088    C205.976,489.559,228.416,512,256,512s50.024-22.441,50.024-50.024V281.888c0-5.526-4.48-10.005-10.005-10.005h-10.005v-92.763    c7.151-3.396,13.746-8.029,19.515-13.793c7.322-7.331,12.887-16.129,16.356-25.76h54.173c5.525,0,10.005-4.479,10.005-10.005    V10.005C386.064,4.479,381.583,0,376.059,0z M286.015,461.976c0,16.55-13.465,30.015-30.015,30.015s-30.015-13.465-30.015-30.015    V291.893h60.029V461.976z M245.995,271.883v-86.76c3.275,0.465,6.613,0.718,10.005,0.718c3.379,0,6.718-0.246,10.005-0.713v86.755    H245.995z M291.378,151.18c-5.275,5.271-11.519,9.216-18.326,11.678c-0.108,0.033-0.21,0.077-0.316,0.114    c-5.305,1.878-10.945,2.859-16.736,2.859c-5.714,0-11.229-0.956-16.383-2.727c-0.236-0.092-0.474-0.181-0.718-0.256    c-11.511-4.154-21.137-12.415-26.96-23.279h88.086C297.734,143.806,294.832,147.722,291.378,151.18z M366.054,79.789H241.25    c-5.525,0-10.005,4.479-10.005,10.005s4.48,10.005,10.005,10.005h124.804v19.76H145.946v-19.76h15.264    c5.525,0,10.005-4.479,10.005-10.005s-4.48-10.005-10.005-10.005h-15.264v-20.01h220.107V79.789z M366.054,39.769H145.946V20.01    h220.107V39.769z" fill="#FFFFFF"/>
	</g>
</g>
<g>
	<g>
		<path d="M211.037,87.843c-0.13-0.64-0.319-1.271-0.569-1.871c-0.25-0.61-0.561-1.191-0.921-1.731    c-0.359-0.55-0.779-1.061-1.24-1.521s-0.98-0.88-1.522-1.241c-0.54-0.36-1.121-0.67-1.73-0.92c-0.601-0.25-1.231-0.45-1.871-0.57    c-1.291-0.26-2.621-0.26-3.912,0c-0.63,0.12-1.261,0.32-1.871,0.57c-0.6,0.25-1.181,0.56-1.721,0.92    c-0.55,0.36-1.062,0.78-1.522,1.241c-0.47,0.46-0.88,0.97-1.251,1.521c-0.359,0.54-0.67,1.121-0.92,1.731    c-0.25,0.6-0.439,1.231-0.569,1.871c-0.131,0.64-0.19,1.301-0.19,1.951c0,0.65,0.06,1.311,0.19,1.951s0.319,1.271,0.569,1.871    c0.25,0.61,0.561,1.191,0.92,1.731c0.37,0.55,0.78,1.061,1.251,1.521c0.46,0.46,0.971,0.88,1.522,1.241    c0.54,0.36,1.121,0.67,1.721,0.92c0.61,0.25,1.241,0.45,1.871,0.57c0.65,0.13,1.301,0.2,1.961,0.2c0.65,0,1.311-0.07,1.951-0.2    c0.64-0.12,1.271-0.32,1.871-0.57c0.609-0.25,1.19-0.56,1.73-0.92s1.062-0.78,1.522-1.241s0.88-0.97,1.24-1.521    c0.36-0.54,0.671-1.121,0.921-1.731c0.25-0.6,0.439-1.231,0.569-1.871s0.2-1.301,0.2-1.951    C211.237,89.144,211.167,88.483,211.037,87.843z" fill="#FFFFFF"/>
	</g>
</g>
<g>
</g>
<g>
</g>
<g>
</g>
<g>
</g>
<g>
</g>
<g>
</g>
<g>
</g>
<g>
</g>
<g>
</g>
<g>
</g>
<g>
</g>
<g>
</g>
<g>
</g>
<g>
</g>
<g>
</g>
</svg>
